<?xml version="1.0" encoding="utf-8"?>
<!-- Generator: Adobe Illustrator 21.0.2, SVG Export Plug-In . SVG Version: 6.00 Build 0)  -->
<svg version="1.1" id="Layer_1" xmlns="http://www.w3.org/2000/svg" xmlns:xlink="http://www.w3.org/1999/xlink" x="0px" y="0px"
	 viewBox="0 0 338 229" style="enable-background:new 0 0 338 229;" xml:space="preserve">
<style type="text/css">
	.st0{fill:#FFFFFF;}
	.st1{fill:#FFCF00;}
</style>
<title>Group</title>
<desc>Created with Sketch.</desc>
<path id="_x38_-_x2022_-26-_x2022_-2017" class="st0" d="M71.1,217.6c0.5-0.4,1.2-0.8,2.1-1.1c-1.1-0.6-1.8-1.2-2.2-1.8
	c-0.4-0.6-0.6-1.3-0.6-2.2c0-1.5,0.6-2.8,1.9-3.8c1.3-1,2.9-1.5,4.8-1.5c1.9,0,3.5,0.5,4.8,1.5c1.3,1,1.9,2.3,1.9,3.8
	c0,0.9-0.2,1.6-0.6,2.2c-0.4,0.6-1.2,1.2-2.2,1.8c0.8,0.3,1.5,0.7,2.1,1.1c1.4,1.1,2.1,2.5,2.1,4.4c0,1.9-0.7,3.5-2.2,4.7
	c-1.5,1.2-3.4,1.8-5.7,1.8c-2.5,0-4.4-0.6-5.9-1.8c-1.5-1.2-2.2-2.7-2.2-4.7C69,220.1,69.7,218.6,71.1,217.6z M77,209.2
	c-1.2,0-2.2,0.3-3,0.9c-0.8,0.6-1.2,1.4-1.2,2.3c0,0.8,0.4,1.5,1.1,2.1s1.7,0.8,3,0.8s2.2-0.3,3-0.8c0.8-0.5,1.1-1.2,1.1-2.1
	c0-0.9-0.4-1.7-1.2-2.3C79.2,209.6,78.2,209.2,77,209.2z M77.2,217.6c-1.7,0-3.1,0.4-4,1.2s-1.5,1.8-1.5,3.2c0,1.3,0.5,2.4,1.5,3.2
	c1,0.8,2.3,1.2,3.9,1.2s2.9-0.4,3.9-1.2c1-0.8,1.5-1.9,1.5-3.2s-0.5-2.3-1.4-3.1C80,218,78.7,217.6,77.2,217.6z M100,217.6
	c0-1.2,0.4-2.1,1.2-3c0.8-0.8,1.8-1.2,2.9-1.2c1.1,0,2.1,0.4,2.9,1.2c0.8,0.8,1.2,1.8,1.2,3s-0.4,2.1-1.2,3
	c-0.8,0.8-1.8,1.2-2.9,1.2c-1.1,0-2.1-0.4-2.9-1.2C100.4,219.7,100,218.8,100,217.6z M125.3,224.2c0.9-1,2-1.4,3.3-1.4
	c1.2,0,2.4,0.5,3.7,1.6c1.4,1.1,2.5,1.7,3.3,1.7c0.6,0,1-0.2,1.4-0.6c0.4-0.4,0.5-0.8,0.5-1.4c0-0.2,0-0.4-0.1-0.7
	c-0.3,0.3-0.7,0.5-1.1,0.5c-0.9,0-1.3-0.4-1.3-1.3c0-0.5,0.2-0.8,0.5-1.1c0.3-0.3,0.8-0.5,1.4-0.5c0.7,0,1.3,0.3,1.8,0.8
	c0.4,0.5,0.7,1.2,0.7,2.1c0,1.2-0.4,2.3-1.2,3.2c-0.8,0.9-1.7,1.3-2.8,1.3c-1.1,0-2.3-0.6-3.8-1.7c-1.5-1.1-2.8-1.7-3.9-1.7
	c-1.1,0-1.8,0.4-2.1,1.3c0.2,0,0.3-0.1,0.4-0.1c0.6,0,0.9,0.3,0.9,0.9c0,0.9-0.5,1.3-1.5,1.3c-0.7,0-1.2-0.3-1.6-0.9
	s-0.6-1.3-0.6-2.3c0-3.5,2.4-6,7.2-7.6l2.2-0.7c2.4-0.8,3.6-2.1,3.6-3.9c0-1.2-0.4-2.2-1.3-2.9c-0.9-0.7-2.1-1.1-3.6-1.1
	c-1.3,0-2.4,0.3-3.3,0.8c-0.9,0.5-1.4,1.3-1.6,2.2c1.1,0.1,1.6,0.5,1.6,1.4c0,0.5-0.2,1-0.6,1.3c-0.4,0.4-0.8,0.6-1.4,0.6
	c-0.7,0-1.2-0.2-1.6-0.7c-0.4-0.5-0.6-1.1-0.6-1.8c0-1.6,0.7-3,2.2-4.1c1.5-1.1,3.3-1.7,5.5-1.7c2.1,0,3.9,0.6,5.2,1.7
	c1.4,1.1,2,2.5,2,4.3c0,1.2-0.3,2.3-1,3.2c-0.7,0.9-1.6,1.6-2.7,2.1c-0.4,0.1-1.6,0.6-3.6,1.3c-1.5,0.5-2.6,1-3.5,1.4
	c-0.6,0.3-1.2,0.8-1.6,1.3C125.7,222.9,125.4,223.5,125.3,224.2z M151,209.1c-1.8,0-3.3,0.8-4.4,2.3s-1.8,3.6-1.9,6.2
	c1.3-2.2,3.3-3.3,6.2-3.3c2.2,0,4,0.6,5.3,1.9c1.4,1.3,2.1,2.9,2.1,4.9c0,2.1-0.7,3.9-2.2,5.3c-1.5,1.4-3.4,2.1-5.7,2.1
	c-2.6,0-4.6-0.8-6-2.6c-1.5-1.7-2.2-4-2.2-7c0-3.6,0.8-6.5,2.4-8.6c1.6-2.1,3.8-3.2,6.5-3.2c1.7,0,3.1,0.4,4.3,1.3
	c1.2,0.8,1.8,1.9,1.8,3.1c0,0.6-0.2,1-0.6,1.4c-0.4,0.4-0.8,0.6-1.4,0.6c-0.4,0-0.8-0.2-1.1-0.5s-0.5-0.7-0.5-1.1
	c0-0.6,0.3-1,0.8-1.2C153.9,209.6,152.7,209.1,151,209.1z M150.5,216.3c-1.6,0-2.9,0.4-3.8,1.3c-0.9,0.9-1.4,2.1-1.4,3.6
	c0,1.6,0.5,2.8,1.4,3.7c1,0.9,2.2,1.4,3.8,1.4c1.5,0,2.8-0.5,3.8-1.4c1-1,1.5-2.2,1.5-3.7c0-1.5-0.5-2.7-1.4-3.6
	C153.3,216.8,152.1,216.3,150.5,216.3z M173.2,217.6c0-1.2,0.4-2.1,1.2-3c0.8-0.8,1.8-1.2,2.9-1.2c1.1,0,2.1,0.4,2.9,1.2
	c0.8,0.8,1.2,1.8,1.2,3s-0.4,2.1-1.2,3c-0.8,0.8-1.8,1.2-2.9,1.2c-1.1,0-2.1-0.4-2.9-1.2C173.6,219.7,173.2,218.8,173.2,217.6z
	 M198.5,224.2c0.9-1,2-1.4,3.3-1.4c1.2,0,2.4,0.5,3.7,1.6c1.4,1.1,2.6,1.7,3.3,1.7c0.6,0,1-0.2,1.4-0.6c0.3-0.4,0.5-0.8,0.5-1.4
	c0-0.2,0-0.4-0.1-0.7c-0.3,0.3-0.7,0.5-1.1,0.5c-0.9,0-1.3-0.4-1.3-1.3c0-0.5,0.2-0.8,0.5-1.1c0.3-0.3,0.8-0.5,1.3-0.5
	c0.7,0,1.3,0.3,1.8,0.8c0.4,0.5,0.7,1.2,0.7,2.1c0,1.2-0.4,2.3-1.2,3.2c-0.8,0.9-1.7,1.3-2.9,1.3c-1.1,0-2.3-0.6-3.8-1.7
	c-1.5-1.1-2.8-1.7-3.9-1.7c-1.1,0-1.8,0.4-2.1,1.3c0.2,0,0.3-0.1,0.4-0.1c0.6,0,0.9,0.3,0.9,0.9c0,0.9-0.5,1.3-1.5,1.3
	c-0.7,0-1.2-0.3-1.6-0.9s-0.6-1.3-0.6-2.3c0-3.5,2.4-6,7.2-7.6l2.2-0.7c2.4-0.8,3.6-2.1,3.6-3.9c0-1.2-0.4-2.2-1.3-2.9
	c-0.9-0.7-2.1-1.1-3.6-1.1c-1.3,0-2.4,0.3-3.3,0.8c-0.9,0.5-1.4,1.3-1.6,2.2c1.1,0.1,1.6,0.5,1.6,1.4c0,0.5-0.2,1-0.6,1.3
	c-0.4,0.4-0.9,0.6-1.4,0.6c-0.7,0-1.2-0.2-1.6-0.7c-0.4-0.5-0.6-1.1-0.6-1.8c0-1.6,0.7-3,2.2-4.1s3.3-1.7,5.5-1.7
	c2.1,0,3.9,0.6,5.2,1.7c1.4,1.1,2,2.5,2,4.3c0,1.2-0.3,2.3-1,3.2c-0.6,0.9-1.6,1.6-2.7,2.1c-0.4,0.1-1.6,0.6-3.6,1.3
	c-1.5,0.5-2.6,1-3.5,1.4c-0.6,0.3-1.2,0.8-1.6,1.3C198.9,222.9,198.6,223.5,198.5,224.2z M223.4,228.4c-2.5,0-4.5-0.9-6-2.8
	c-1.5-1.9-2.2-4.4-2.2-7.7c0-3.3,0.8-6,2.3-7.9s3.6-2.9,6.2-2.9c2.5,0,4.5,0.9,5.9,2.8c1.5,1.9,2.2,4.4,2.2,7.5
	c0,3.4-0.7,6.1-2.2,8.1C228,227.5,226,228.4,223.4,228.4z M223.6,209.3c-3.7,0-5.6,2.7-5.7,8.2v0.4c0,2.6,0.5,4.6,1.4,6.1
	s2.3,2.1,4.1,2.1c1.8,0,3.2-0.8,4.2-2.3s1.5-3.7,1.5-6.4c0-2.6-0.5-4.6-1.4-6S225.4,209.3,223.6,209.3z M241.5,220.9l-0.1-8.7
	c0-1-0.1-1.7-0.3-2c-0.2-0.3-0.6-0.5-1.1-0.5c-0.2,0-0.5,0-0.9,0.1c-0.4,0.1-0.7,0.1-0.9,0.1c-0.8,0-1.2-0.3-1.2-1
	c0-0.7,0.4-1.1,1.1-1.1c0.2,0,0.6,0,1.1,0.1c0.5,0.1,0.9,0.1,1.2,0.1c0.6,0,1.2,0,1.6-0.1c0.6-0.1,1-0.1,1.1-0.1
	c0.4,0,0.7,0.1,0.8,0.4c0.1,0.2,0.1,0.5,0.1,0.9c0,0.1,0,0.3,0,0.7c-0.1,2.1-0.1,4.1-0.1,5.8v3.4c0,0.6,0,1.4,0,2.5
	c0,1.3,0.1,2.1,0.1,2.5c0,1.4,0.5,2.1,1.4,2.1c0.2,0,0.5,0,1-0.1c0.4,0,0.8-0.1,1-0.1c1,0,1.4,0.4,1.4,1.1s-0.4,1.1-1.3,1.1
	c-0.3,0-0.7,0-1-0.1c-1.7-0.2-3-0.3-3.8-0.3s-2,0.1-3.2,0.3c-0.7,0.1-1.2,0.2-1.5,0.2c-0.9,0-1.3-0.4-1.3-1.1c0-0.7,0.5-1.1,1.5-1.1
	c0.3,0,0.6,0,0.9,0.1c0.5,0,0.8,0.1,0.9,0.1c0.7,0,1.1-0.3,1.3-0.8C241.4,224.6,241.5,223.2,241.5,220.9z M256.3,208.9l-0.1,0.3
	c0.5-0.8,0.9-1.3,1.3-1.6c0.4-0.3,0.9-0.4,1.6-0.4c1,0,2.1,0.5,3.4,1.5c1.5,1.1,2.6,1.7,3.4,1.7c0.8,0,1.4-0.3,1.6-0.8h-0.2
	c-0.3,0-0.5-0.1-0.8-0.4s-0.3-0.5-0.3-0.8c0-0.4,0.1-0.7,0.4-1s0.6-0.4,1-0.4c1.3,0,2,0.9,2,2.7c0,1.3-0.3,2.5-1,3.5
	c-0.4,0.6-0.9,1.2-1.3,1.6c-0.2,0.2-0.7,0.6-1.3,1.2c-1.4,1.2-2.3,2.3-2.8,3.3c-0.7,1.4-1.1,3.1-1.1,5.2c0,0,0,0.2,0,0.7
	c0,1,0.1,1.4,0.1,1.3c0,1.3-0.5,1.9-1.5,1.9c-1,0-1.6-0.8-1.6-2.5c0-2.6,0.5-4.8,1.4-6.8c0.8-1.6,2.4-3.4,5-5.5
	c1-0.9,1.6-1.6,1.8-2.1c-0.7,0.6-1.5,0.9-2.6,0.9c-1.3,0-2.5-0.5-3.8-1.4l-1.2-0.9c-0.4-0.3-0.9-0.5-1.5-0.5c-1.3,0-1.9,0.8-1.9,2.5
	c0,0.5,0,1,0.1,1.4c0.1,0.7,0.2,1.2,0.2,1.6c0,0.3-0.1,0.6-0.3,0.9c-0.2,0.2-0.5,0.4-0.9,0.4c-0.8,0-1.2-0.4-1.2-1.3
	c0-0.3,0.1-0.9,0.2-1.6c0.1-0.7,0.2-1.2,0.2-1.6c0-0.6,0-1.2-0.1-1.8s-0.1-1.2-0.1-1.7c0-0.8,0.3-1.2,1.1-1.2c0.6,0,0.9,0.3,0.9,1.1
	C256.4,208.2,256.4,208.5,256.3,208.9z"/>
<path id="Rectangle" class="st1" d="M138,157h63c0.6,0,1,0.4,1,1l0,0c0,0.6-0.4,1-1,1h-63c-0.6,0-1-0.4-1-1l0,0
	C137,157.4,137.4,157,138,157z"/>
<path id="Fill-1" class="st0" d="M240.2,70.7c-0.6,1.2-1.7,3.6-3.5,6.3c-0.3-1.3-0.8-2.9-1.6-4.7c-0.6-1.5-0.9-2.9-1-4.2L240.2,70.7
	z M228.4,87.3c0-1.3-0.2-2.9-0.4-4.6c-0.3-1.7-0.2-3.3,0.1-4.6c0.1-0.3,0.2-0.6,0.4-0.9c1.8-2.4,3.3-4.7,4.3-6.5
	c0.2,0.8,0.4,1.6,0.8,2.4c1,2.5,1.5,4.2,1.6,5.1c0.1,0.7-0.1,1.4-0.5,2C232.7,82.8,230.6,85.2,228.4,87.3L228.4,87.3z M103.2,70.8
	c-1-0.2-1.9-0.5-2.7-0.7l5.5-1.6c0.3,0.8,0.8,2.1,1.5,3.5c-0.9-0.4-1.9-0.7-3-1C104.1,71,103.6,70.9,103.2,70.8L103.2,70.8z
	 M104.1,72.8c2.6,0.6,4.1,1.5,4.9,2.2c0.2,0.1,0.3,0.3,0.4,0.5c0.6,1,1.3,2,2,3c-0.8-0.1-1.6-0.2-2.5-0.2c-1.9,0-3.6-0.1-4.9-0.4
	c-0.7-0.1-1.4-0.6-1.8-1.3c-1-1.8-1.7-3.5-2.2-4.7c0.8,0.2,1.8,0.4,2.7,0.7l0.2,0C103.4,72.6,103.7,72.7,104.1,72.8L104.1,72.8z
	 M214.1,95.2c0.6-1.2,1.3-2.8,1.9-4.7c0.4-1.4,1-2.6,1.7-3.5c0.2-0.3,0.5-0.5,0.8-0.7c2.6-1.5,5.1-3.6,7.5-6.2
	c0,0.9,0.1,1.8,0.2,2.8c0.2,1.4,0.4,2.7,0.4,3.8c0.1,1.4-0.6,2.7-1.7,3.5C221.4,92.7,217.9,94.3,214.1,95.2L214.1,95.2z M203.2,91.6
	c1.1-1,2.3-1.8,3.4-2.2c0.4-0.2,0.8-0.3,1.3-0.2c0.2,0,0.3,0,0.5,0c2.3,0,4.6-0.4,6.8-1.2c-0.3,0.6-0.6,1.3-0.8,2.1
	c-0.5,1.6-1,2.9-1.6,4c-0.5,1-1.5,1.7-2.7,1.8c-0.6,0-1.1,0.1-1.7,0.1c-2.8,0-5.8-0.4-8.9-1.3C200.6,93.8,201.8,92.8,203.2,91.6
	L203.2,91.6z M193.1,88.3c1.2-0.6,2.4-1,3.5-1.2c0.6-0.1,1.3,0,2,0.2c1.4,0.5,2.6,0.9,3.5,1c0.6,0.2,1.2,0.3,1.9,0.4
	c-0.7,0.4-1.3,0.9-2,1.5c-1.4,1.3-2.7,2.3-3.8,2.9c-0.6,0.4-1.5,0.5-2.2,0.2c-0.8-0.3-1.5-0.6-2.2-0.9c0,0,0,0,0,0c0,0,0,0,0,0
	c-1.5-0.6-3.2-1.4-5-2.5C190,89.7,191.5,89.1,193.1,88.3L193.1,88.3z M181.3,93.6c0.9-2,1.9-3.2,2.6-3.8c1,0.6,2.6,1.7,4.5,2.7
	c-0.1,0.2-0.1,0.4-0.2,0.6c-0.4,1.3-1.4,2.3-2.7,2.8c-2.1,0.7-4.2,1.3-6.3,1.7C179.9,96.5,180.6,95.1,181.3,93.6L181.3,93.6z
	 M170.5,94.8c1.6-2,3.1-2.9,4.1-3.2c0.2-0.1,0.4-0.1,0.6-0.1c2.1-0.2,4.1-0.6,6.1-1.2c-0.5,0.8-1,1.7-1.5,2.6
	c-0.4,0.8-0.7,1.5-1.1,2.2c-1,1.8-2.9,3.1-4.9,3.2c-2.1,0.1-4.2,0.1-6.4-0.1C168.3,97.3,169.3,96.1,170.5,94.8L170.5,94.8z
	 M159.5,93.1c1.5-1.1,2.9-1.8,4.3-2c0.3-0.1,0.6-0.1,0.9,0c2.1,0.3,4.2,0.5,6.3,0.5c-0.7,0.6-1.3,1.2-2,2c-0.9,1.1-1.8,2.1-2.7,2.9
	c-0.9,0.9-2.2,1.3-3.5,1.1c-2.5-0.4-4.9-1.1-7.3-1.9C156.8,95.1,158.1,94.2,159.5,93.1L159.5,93.1z M150.2,89.3c1.4-0.6,2.8-1,4-1
	c0.4,0,0.8,0.1,1.3,0.2c1.5,0.6,2.8,1.1,3.9,1.4c0.5,0.1,1,0.3,1.5,0.4c-0.8,0.4-1.6,0.9-2.4,1.4c-1.1,0.8-2.1,1.4-3,2
	c-1.3,0.8-3,0.8-4.4,0.2c-0.3-0.1-0.6-0.3-0.9-0.4c-1.4-0.7-3-1.6-4.6-2.6C146.9,90.5,148.4,90,150.2,89.3L150.2,89.3z M141.6,95.8
	c0.6-1,1.2-2.2,1.9-3.6c1.2,0.8,2.4,1.5,3.5,2.1C145.2,94.9,143.4,95.4,141.6,95.8L141.6,95.8z M134.3,76.7c1.8,0,3.4,0.2,4.7,0.8
	c0.3,0.1,0.6,0.3,0.8,0.6c1.2,1.2,2.6,2.4,3.9,3.5c-0.8,0-1.6,0.2-2.5,0.3c-1.5,0.3-2.9,0.5-4.1,0.6c-1.5,0.1-2.9-0.4-3.8-1.5
	c-0.6-0.6-1.1-1.2-1.6-1.8c-0.7-0.8-1.4-1.7-2.1-2.6C130.9,76.6,132.5,76.7,134.3,76.7L134.3,76.7z M127.6,67
	c3.9,0.8,5.3,2.4,5.6,2.9l0.4-0.2l-0.3,0.3l0,0c0,0,0,0.1,0.1,0.1c1.1,1.6,2.3,3.2,3.5,4.6c0.1,0.1,0.2,0.2,0.3,0.3
	c-0.7-0.1-1.5-0.2-2.4-0.2c-0.1,0-0.3,0-0.4,0c-1.5,0-2.8,0-4-0.1c-1.4-0.1-2.6-0.9-3.4-2.1c-1.4-2.2-2.7-4.5-3.8-6.8
	C124.4,66.3,125.9,66.6,127.6,67L127.6,67z M124,57.3c2.8,1.4,4,2.9,4.4,3.7c0,0.1,0.1,0.1,0.1,0.2l0.2,0.5l0,0
	c0.6,1.5,1.3,2.9,2.1,4.4c-0.9-0.4-1.9-0.7-2.9-0.9c-1.4-0.3-2.6-0.6-3.7-0.9c-1.2-0.4-2.2-1.4-2.7-2.6c-0.8-2.3-1.4-4.6-1.7-6.8
	C121,55.7,122.4,56.5,124,57.3L124,57.3z M126.3,51.6c0.1,1.7,0.4,3.6,0.9,5.5c-0.7-0.5-1.5-1-2.4-1.4c-1.5-0.7-2.8-1.4-3.8-2.1
	c-0.9-0.6-1.4-1.6-1.4-2.8c0-2.6,0.3-5.2,0.8-7.7c0.8,1.2,1.9,2.5,3.2,3.9c1.2,1.2,2,2.5,2.5,3.7C126.2,51,126.3,51.3,126.3,51.6
	L126.3,51.6z M127.7,42.4l0,0.1c0,0.1-0.1,0.2-0.1,0.2c-0.1,0.1-0.1,0.2-0.1,0.3c-0.5,1.5-0.8,3-1,4.6c-0.4-0.6-1-1.3-1.5-1.9
	c-1-1.1-1.9-2.1-2.6-3c-0.9-1.2-1.1-2.8-0.5-4.2c0.9-2.4,2.2-4.7,3.7-6.8c0.3,1.4,0.8,3,1.5,4.8C128.2,39.6,127.9,41.5,127.7,42.4
	L127.7,42.4z M134,28.8c0,1.1-0.1,2.1-0.4,3.1c-0.2,0.6-0.4,1.2-0.8,1.6c-1.3,1.5-2.5,3.1-3.4,4.9c-0.2-0.8-0.4-1.6-0.7-2.5
	c-0.5-1.3-0.9-2.4-1.1-3.4c-0.4-1.6,0-3.2,1.2-4.3c1.8-1.7,3.7-3.3,5.8-4.5C134.2,25,134.1,26.7,134,28.8L134,28.8z M143.4,23.8
	c-0.5,1.3-1.2,2.4-1.9,3.3c-0.3,0.3-0.6,0.6-1.1,0.8c-1.7,0.8-3.3,1.7-4.8,2.9c0.1-0.6,0.1-1.3,0.1-2c0-1.8,0.2-3.3,0.4-4.6
	c0.2-1.2,1-2.1,2.1-2.6c2.3-1,4.7-1.7,7.2-2.1C144.8,20.7,144.1,22.1,143.4,23.8L143.4,23.8z M153.1,23.4c-0.8,0.8-1.6,1.5-2.4,2
	c-0.6,0.4-1.4,0.6-2.1,0.7c-1.6,0.1-3.1,0.3-4.6,0.7c0.4-0.7,0.8-1.4,1.1-2.2c0.5-1.3,1-2.4,1.5-3.3c0.7-1.2,1.9-2,3.3-2
	c2.3,0,4.6,0.3,6.9,0.9C155.7,20.9,154.4,22,153.1,23.4L153.1,23.4z M163.1,26.8c-0.8,0.3-1.5,0.6-2.3,0.7c-1.1,0.2-2.2,0.2-3.3-0.2
	c-1.6-0.6-3.2-1-4.8-1.2c0.6-0.4,1.1-0.9,1.7-1.5c1.2-1.2,2.3-2.2,3.3-2.9c0.8-0.6,2-0.8,2.9-0.4c2.5,1,4.9,2.3,7.1,4
	C166.4,25.6,164.8,26.1,163.1,26.8L163.1,26.8z M165,31.7c-1.1-0.9-2.3-1.8-3.5-2.5c0.7-0.2,1.5-0.4,2.2-0.7
	c2.8-1.1,4.5-1.5,5.5-1.7C168.2,27.9,166.4,29.8,165,31.7L165,31.7z M190.3,23.2c-1.5,2.1-2.8,3-3.7,3.5c-0.1,0-0.2,0.1-0.2,0.1
	c-0.4,0.1-0.8,0.2-1.1,0.4c-0.1,0-0.1,0-0.1,0.1c-0.6,0.2-1.3,0.5-1.9,0.7c0.3-0.7,0.5-1.4,0.8-2.2c0.5-2,1.1-3.6,1.7-4.9
	c0.3-0.6,0.9-1.1,1.5-1.2c1.6-0.3,3.2-0.5,4.6-0.5c0.1,0,0.2,0,0.3,0c0.5,0,1,0,1.5,0.1C192.6,20.3,191.5,21.6,190.3,23.2
	L190.3,23.2z M199.9,24.8c-1.3,0.7-2.5,1.2-3.7,1.5c-0.4,0.1-0.8,0.1-1.2,0c-1-0.2-2-0.3-3-0.3h0c-0.1,0-0.1,0-0.2,0
	c-0.4,0-0.9,0-1.4,0.1c0.5-0.5,1-1.1,1.4-1.7c1-1.5,2-2.7,2.9-3.6c0.7-0.7,1.8-1.1,2.7-0.8c2.5,0.5,4.8,1.4,7.1,2.7
	C203.2,23,201.6,23.8,199.9,24.8L199.9,24.8z M208.2,30.4c-1.1,0.1-2.1,0.2-3,0.1c-0.6-0.1-1.2-0.3-1.7-0.6
	c-1.5-1.1-3.1-1.9-4.8-2.6c0.6-0.3,1.3-0.6,1.9-1c1.6-0.9,3-1.6,4.2-2c1-0.4,2-0.2,2.8,0.4c2.1,1.5,4,3.4,5.6,5.4
	C212,30,210.3,30.1,208.2,30.4L208.2,30.4z M214.1,38.9c-1.2-0.3-2.3-0.7-3.2-1.2c-0.4-0.2-0.7-0.5-1-1c-1-1.6-2.2-3.1-3.5-4.4
	c0.6,0,1.3-0.1,2-0.1c1.8-0.2,3.4-0.3,4.7-0.3c1.1,0.1,2,0.6,2.6,1.5c1.3,2.2,2.4,4.5,3.2,7C217.7,39.9,216.1,39.3,214.1,38.9
	L214.1,38.9z M214,46.9c-0.3-0.4-0.5-0.8-0.6-1.3c-0.4-1.9-1-3.8-1.7-5.6c0.6,0.3,1.3,0.5,2.1,0.6c1.7,0.4,3.1,0.9,4.3,1.4
	c1,0.4,1.8,1.3,2,2.4c0.4,2.1,0.6,4.2,0.6,6.4c0,0.5,0,1.1-0.1,1.7c-1-0.9-2.2-1.9-3.8-3C215.6,48.6,214.7,47.8,214,46.9L214,46.9z
	 M213.8,53c0.1-0.8,0.1-1.5,0.1-2.2c0-0.5,0-0.9,0-1.4c0.6,0.5,1.2,1,1.9,1.5c1.1,0.8,2.1,1.5,2.9,2.2c1.1,0.9,1.5,2.4,1.2,3.7
	c-0.3,1.6-0.8,3.3-1.4,5c-0.6-1.1-1.5-2.4-2.5-3.7h0c-1.1-1.4-1.8-2.9-2.1-4.2C213.7,53.7,213.7,53.3,213.8,53L213.8,53z
	 M211.2,62.3c0.8-1.8,1.4-3.7,1.9-5.4c0.4,0.8,0.9,1.6,1.5,2.4c0.9,1.2,1.7,2.4,2.3,3.4c0.5,0.9,0.6,2.1,0.2,3
	c-0.9,2.1-2,4.1-3.2,6.2c-0.4-1.3-0.9-2.7-1.7-4.4c-0.6-1.4-1-2.6-1.1-3.8C210.9,63.2,211,62.8,211.2,62.3L211.2,62.3z M206.3,71.9
	c0.1-0.6,0.3-1.3,0.7-1.9c0.9-1.4,1.8-2.9,2.5-4.3c0.2,0.8,0.5,1.6,0.9,2.5c0.8,1.6,1.3,3,1.7,4.3c0.3,0.9,0.1,1.9-0.4,2.6
	c-1.3,1.9-2.7,3.7-4.2,5.4c-0.1-1.3-0.4-2.8-0.8-4.5C206.3,74.5,206.2,73.1,206.3,71.9L206.3,71.9z M202,86.1c-1-0.2-2.4-0.7-4-1.4
	c0-1.5,0.2-2.9,0.6-4c0.2-0.6,0.6-1.1,1-1.6c0.9-0.9,1.7-1.8,2.5-2.7c0.8-0.9,1.6-1.9,2.3-2.8c0.1,0.9,0.2,1.9,0.4,2.9
	c0.4,1.5,0.6,2.8,0.7,3.9c0.1,1.3-0.3,2.5-1.2,3.4C203.7,84.5,202.9,85.3,202,86.1L202,86.1z M184.6,87.5l-0.2-0.2l0,0c0,0,0,0,0,0
	c0,0,0,0,0,0c-1.9-1.3-3.8-2.8-5.6-4.4c1.3-0.1,2.7-0.4,4.4-0.8c2.5-0.6,4.2-0.4,5.1-0.2c0.2,0,0.4,0.1,0.5,0.3
	c1.2,0.8,2.3,1.5,3.5,2.2l0,0c0,0,0,0,0,0c0.1,0.1,1.2,0.6,2.6,1.3c-0.8,0.2-1.6,0.6-2.5,1c-1.2,0.6-2.3,1-3.2,1.4
	C187.6,88.6,185.9,88.4,184.6,87.5L184.6,87.5z M182.3,25.3c-0.4,1.6-1,2.9-1.8,3.9c-0.1,0.2-0.3,0.4-0.6,0.5c-1.4,0.9-2.8,1.9-4,3
	c0,0-0.1,0.1-0.2,0.2c0.1-0.8,0.1-1.5,0-2.4c-0.1-1.4-0.1-2.7-0.1-3.8c0.1-1.5,0.9-2.9,2.3-3.6c1.9-1,3.9-1.9,6-2.5
	C183.3,21.8,182.8,23.4,182.3,25.3L182.3,25.3z M194.9,83.2c0.5-0.4,1-0.8,1.6-1.2c-0.1,0.6-0.2,1.2-0.2,1.9
	C195.8,83.7,195.3,83.4,194.9,83.2L194.9,83.2z M159.3,50.8c0,5.9,1.8,12.2,5.3,18.4c-1.2,1.8-2.6,3.6-4.1,5.2
	c-2.2,2.5-5.8,5.9-10.6,8.7c-4.2-2.6-8.1-5.9-11.5-9.9c-6.2-7.2-10-15.8-10-22.5c0-11.1,8-22.6,21.4-22.6c4.9,0,10,2,13.9,5.5
	C160.8,38.7,159.3,44.5,159.3,50.8L159.3,50.8z M168.9,44.6c-0.5,2-0.7,4.1-0.7,6.2c0,0.1,0,0.3,0,0.4c-0.5-0.6-1.2-1.1-1.8-1.7
	c-1.5-1.2-2.7-2.3-3.5-3.2c-0.6-0.6-0.8-1.5-0.6-2.4c0.7-3.3,1.9-6.4,3.6-9.2c0.4,1.3,1.1,2.9,2,4.8c0.7,1.4,1.1,2.7,1.3,3.9
	C169,43.8,169,44.2,168.9,44.6L168.9,44.6z M176.4,35.4c1.5,2.8,2.6,5.7,3.2,8.9c-1.2-0.7-2.7-1.4-4.4-2c-1-0.4-1.9-0.8-2.7-1.3
	C173.6,38.3,175.4,36.3,176.4,35.4L176.4,35.4z M192.7,82.1c-3.1-1.8-6.1-4-9-6.6c-2.3-2.1-4.3-4.3-6.1-6.6c1.6-3.2,2.8-6.4,3.6-9.6
	c0.1-0.1,0.1-0.2,0.1-0.3c0.7-2.8,1.1-5.6,1.1-8.2c0-6-1.5-11.9-4.4-17c4.7-4,10.4-5.7,13.9-5.7h0c3.1,0.1,6.1,0.9,8.8,2.5
	c0.3,0.2,0.5,0.4,1.1,0.7c1.9,1.3,3.6,3,5.1,4.9c0,0,0,0,0,0c0,0.1,0.2,0.5,0.8,1.2c2.5,3.9,3.9,8.5,3.9,13.3
	c0,5.7-3.4,15.4-11.2,24.2C198.9,76.8,196.2,79.5,192.7,82.1L192.7,82.1z M175.8,80.2c-1.1-1.1-2.1-2.2-3-3.3c0.6-0.9,1.3-2,2.2-3.4
	c2.3,0,3.8,0.6,4.6,1c0.2,0.1,0.3,0.2,0.5,0.4c0.7,0.7,1.5,1.4,2.2,2.1c1.1,1,2.2,1.9,3.4,2.8c-0.9,0-1.9,0.2-3,0.4
	c-1.6,0.4-3.1,0.7-4.3,0.8C177.4,81.2,176.5,80.9,175.8,80.2L175.8,80.2z M168.8,81.9c0.9-1,1.8-2,2.6-3.1c1.1,1.3,2.3,2.5,3.6,3.7
	c0,0.1,0.1,0.1,0.2,0.2c0.3,0.3,0.7,0.7,1,1c1.6,1.5,3.3,2.9,5,4.2c-6.1,1.9-12.7,2-19.1,0.4C164.5,86.4,166.7,84.2,168.8,81.9
	L168.8,81.9z M154.9,85.7c0.2-1.5,0.6-2.8,1.2-3.8c0.2-0.3,0.4-0.6,0.7-0.8c1.8-1.5,3.6-3.1,5.2-4.9c-0.1,0.9,0,2,0.1,3
	c0.2,1.8,0.4,3.3,0.3,4.6c0,0.9-0.4,1.7-1.1,2.2c-0.6,0.5-1.2,1-1.8,1.5C158.2,87.2,156.6,86.6,154.9,85.7L154.9,85.7z M170.4,50.8
	c0-1.6,0.1-3.2,0.4-4.7c0.3,1.5,0.4,3.1,0.4,4.7c0,1.3-0.1,2.7-0.4,4.2C170.6,53.5,170.4,52.1,170.4,50.8L170.4,50.8z M180.1,48.2
	c0.1,0.9,0.1,1.8,0.1,2.6c0,1.7-0.2,3.5-0.5,5.4c-0.8-1-1.9-2.1-3.3-3.3v0c-1.2-1.1-2.1-2.2-2.7-3.3c-0.2-0.3-0.3-0.7-0.3-1.2
	c-0.2-1.9-0.5-3.8-1.1-5.5c0.7,0.4,1.4,0.7,2.2,1c1.6,0.6,2.9,1.2,4,1.8C179.5,46.2,180.1,47.1,180.1,48.2L180.1,48.2z M164.4,73.3
	c0.1-0.1,0.1-0.2,0.2-0.3c0.8-1,1.5-2.1,2.2-3.1c0.3-0.5,0.6-1,0.9-1.5c0.2,0.7,0.4,1.5,0.7,2.3c0.7,1.8,1.1,3.5,1.3,4.8
	c0.2,1-0.1,1.9-0.7,2.7c-0.6,0.8-1.2,1.5-1.9,2.2c-1,1.1-2,2.1-3,3.1c0-1.3-0.1-2.8-0.3-4.5C163.4,76,164,74.2,164.4,73.3
	L164.4,73.3z M169.1,60.8c-0.4-0.1-0.8-0.3-1.1-0.4c-1.5-0.4-2.7-0.9-3.8-1.4c-1.1-0.5-1.8-1.4-2-2.5c-0.4-2-0.6-3.9-0.6-5.7
	c0-1,0-2.1,0.1-3.1c0.9,1,2.1,2.1,3.6,3.3c2.1,1.6,3,3.1,3.4,4.1c0.3,1.3,0.6,2.7,1.1,4.1C169.6,59.5,169.4,60.1,169.1,60.8
	L169.1,60.8z M175.3,54.2c1.2,1.1,2.3,2.1,3,3.1c0.6,0.7,0.8,1.7,0.5,2.6c-0.5,1.9-1.2,3.8-2.1,5.7c-0.5-1.2-1.3-2.6-2.2-4.1
	c-0.8-1.3-1.3-2.5-1.6-3.6c-0.1-0.6-0.1-1.3,0-1.9c0.3-1.2,0.4-2.5,0.5-3.6C174,53,174.6,53.6,175.3,54.2L175.3,54.2z M177.3,72
	c-0.4-0.1-0.9-0.1-1.3-0.2c0.2-0.3,0.3-0.6,0.5-0.8C176.8,71.3,177.1,71.7,177.3,72L177.3,72z M167.4,62.2c0.3,0.1,0.6,0.2,0.9,0.3
	c-0.8,1.7-1.6,3.3-2.4,4.6c-1.1-2.2-2.1-4.3-2.8-6.5C164.4,61.1,165.8,61.7,167.4,62.2L167.4,62.2z M175.4,68.5c0,0-2.1,3.8-3.9,6.5
	c-0.2-1.4-0.7-3-1.4-4.8c-0.4-1.2-0.7-2.4-0.8-3.4c0-0.6,0.1-1.2,0.4-1.8c1-2.1,1.7-4,2.1-4.8c0.3,0.8,0.8,1.6,1.3,2.4
	c1.1,1.8,1.9,3.3,2.4,4.6C175.6,67.5,175.6,68,175.4,68.5L175.4,68.5z M153.5,83.5c-0.1,0.4-0.2,0.9-0.3,1.4c-0.3-0.2-0.7-0.3-1-0.5
	C152.6,84.1,153.1,83.8,153.5,83.5L153.5,83.5z M140.9,87.7c-0.3-0.2-0.5-0.4-0.6-0.4c-1.2-1-2.4-2-3.6-3.1c1.4-0.1,3-0.3,4.9-0.7
	c1.5-0.3,2.8-0.4,4-0.2c0.4,0.1,0.8,0.2,1.2,0.5c0.8,0.6,1.7,1.1,2.5,1.6c0,0,0,0,0,0c0.1,0.1,1.1,0.7,2.5,1.4
	c-0.8,0.2-1.6,0.5-2.4,0.8c-0.9,0.4-1.8,0.7-2.6,1C144.9,89.3,142.6,89,140.9,87.7L140.9,87.7z M173.9,30.7c0.1,1.4,0,2.7-0.3,3.8
	c-0.1,0.4-0.3,0.8-0.5,1.1c-1.3,1.6-2.3,3.3-3,5.1c-0.2-0.6-0.5-1.3-0.8-2c-0.8-1.6-1.4-3-1.8-4.2c-0.4-1.1-0.1-2.3,0.6-3.3
	c1.7-2.1,3.6-3.7,3.6-3.7c0.7-0.6,1.4-1.2,2.2-1.8C173.8,27.1,173.8,28.7,173.9,30.7L173.9,30.7z M132.8,92.5c0.8-1,1.7-1.7,2.5-2.3
	c0.4-0.3,0.9-0.5,1.5-0.5c0.9-0.1,1.7-0.2,2.6-0.3c0.5,0.3,1.4,1,2.6,1.8c-0.7,1.6-1.3,2.9-2,3.9c-0.5,0.7-1.3,1.2-2.1,1.3
	c-3,0.3-5.8,0.2-8.6-0.1C130.3,95.3,131.5,94.1,132.8,92.5L132.8,92.5z M131.5,91.4c-1.1,1.3-2.2,2.4-3.1,3.2
	c-0.9,0.8-2.2,1.1-3.3,0.8c-4.1-1.1-7.8-2.9-11.3-5.3c1.3-0.3,2.8-0.8,4.5-1.4c1.8-0.7,3.4-1,4.8-0.9c0.2,0,0.4,0.1,0.6,0.1
	c2.9,1.1,6,1.8,9.3,1.9C132.5,90.3,132,90.8,131.5,91.4L131.5,91.4z M108.9,80c1.5,0,2.8,0.2,3.9,0.6c0.4,0.1,0.7,0.4,1,0.7
	c1.9,2,4,3.6,6.3,4.9c-0.8,0.2-1.6,0.4-2.5,0.8c-1.1,0.4-2.2,0.8-3.2,1.1c-1.5,0.4-3.2,0-4.4-1.1c-1.3-1.2-2.5-2.6-3.7-4.1
	c-0.8-1-1.5-2.1-2.2-3.2C105.5,79.9,107.1,80,108.9,80L108.9,80z M190.7,93.7c-0.3,0.2-0.6,0.3-1,0.5c0.1-0.3,0.2-0.5,0.3-0.8
	C190.3,93.4,190.5,93.6,190.7,93.7L190.7,93.7z M242.1,69.1l-8.2-3.4c-0.6-0.2-1.2,0-1.5,0.6c-0.1,0.2-8.9,20.7-24.1,20.7
	c-1.1,0-2.3-0.1-3.6-0.3c1.4-1.3,2.8-2.8,4.1-4.3c4.4-5,8.1-10.9,10.6-16.9c0.1-0.1,0.2-0.2,0.2-0.4c0,0,0,0,0-0.1
	c2-5.1,3.1-10,3.1-14.2c0-18.4-13.8-33.5-30.7-33.8c-5.2-0.1-13.8,2-21.1,8.2c-5.9-5.2-13.6-8.2-21.1-8.2c-0.6,0-1.3,0-2,0.1
	c0,0-0.1,0-0.1,0c-0.1,0-0.2,0-0.3,0.1c-7.7,0.6-15.3,4.1-20.7,9.7c-6.2,6.3-9.4,14.6-9.4,24c0,9.3,4.7,20.4,12.7,29.7
	c2.1,2.5,4.5,4.8,6.9,6.9c0,0,0,0,0,0c-1,0.1-1.9,0.1-2.9,0.1c-20,0-26.1-19.9-26.3-20.8c-0.2-0.6-0.8-0.9-1.4-0.8l-8.6,2.5
	c-0.3,0.1-0.5,0.3-0.7,0.5C97,69.3,97,69.6,97,69.9c0.1,0.3,2.2,7.3,7.6,14.3c7.4,9.5,17.6,14.5,29.4,14.5c5.3,0,10.5-1,15.6-3.1
	c6.9,3.2,14.1,4.9,21.4,4.9c1.9,0,3.7-0.1,5.6-0.3c0.1,0,0.2,0,0.3,0c5.6-0.7,11.2-2.5,16.4-5.3c5.1,2.1,10.3,3.3,14.9,3.3
	c22.6,0,33.9-26.4,34.4-27.6C242.9,70,242.7,69.3,242.1,69.1L242.1,69.1z"/>
<path id="Fill-3" class="st0" d="M5,94.2c1-2.2,3.7-3,5.7-1.6c2.9,2,6.4,3.2,10.3,3.2c8.9,0,14.6-5.4,14.6-15.1V5.5
	c0-2.2,1.7-3.9,3.9-3.9h14.6c2.2,0,3.9,1.8,3.9,3.9v75.8c0,23.7-14.4,34.5-34.8,34.5c-7.8,0-15.4-1.8-21.7-6.6
	c-1.5-1.1-1.9-3.1-1.2-4.7L5,94.2z"/>
<path id="Fill-5" class="st0" d="M270.4,88.7c1.3-2,4-2.4,5.8-0.8c6.1,5.2,14.4,8.8,23.5,8.8c10,0,15.4-5.5,15.4-12.4
	c0-8.6-8-12.3-18.2-16.6C282.9,62,265.3,55.2,265.3,33c0-17.7,13.7-32.6,36.8-32.6c12.2,0,22.9,3.5,31.2,10.1
	c1.5,1.2,1.9,3.5,0.8,5.1l-6.5,10.2c-1.2,1.9-3.8,2.4-5.6,1c-6.1-4.5-13.3-6.7-20.4-6.7c-8.4,0-13.4,4.7-13.4,11.4
	c0,7.6,7.7,11.1,17.7,15.3c14.4,5.7,32,13.1,32,35.3c0,19.7-13.4,34.1-37.8,34.1c-15.4,0-27-4.6-35.7-12.1c-1.5-1.3-1.8-3.4-0.7-5.1
	L270.4,88.7z"/>
</svg>
