<?xml version="1.0" encoding="UTF-8" standalone="no"?>
<svg width="338px" height="229px" viewBox="0 0 338 229" version="1.1" xmlns="http://www.w3.org/2000/svg" xmlns:xlink="http://www.w3.org/1999/xlink">
    <!-- Generator: Sketch 42 (36781) - http://www.bohemiancoding.com/sketch -->
    <title>Group</title>
    <desc>Created with Sketch.</desc>
    <defs></defs>
    <g id="Page-1" stroke="none" stroke-width="1" fill="none" fill-rule="evenodd">
        <g id="Desktop-HD" transform="translate(-551.000000, -246.000000)" fill="#FFFFFF">
            <g id="Group" transform="translate(551.000000, 246.000000)">
                <path d="M71.1,217.56 C71.6200026,217.159998 72.3199956,216.800002 73.2,216.48 C72.0999945,215.859997 71.350002,215.265003 70.95,214.695 C70.549998,214.124997 70.35,213.390005 70.35,212.49 C70.35,210.969992 70.9949936,209.695005 72.285,208.665 C73.5750065,207.634995 75.1599906,207.12 77.04,207.12 C78.9200094,207.12 80.5049935,207.634995 81.795,208.665 C83.0850065,209.695005 83.73,210.969992 83.73,212.49 C83.73,213.390005 83.5250021,214.124997 83.115,214.695 C82.704998,215.265003 81.9600054,215.859997 80.88,216.48 C81.7200042,216.800002 82.4099973,217.159998 82.95,217.56 C84.350007,218.620005 85.05,220.089991 85.05,221.97 C85.05,223.89001 84.3200073,225.449994 82.86,226.65 C81.3999927,227.850006 79.4900118,228.45 77.13,228.45 C74.6699877,228.45 72.7000074,227.860006 71.22,226.68 C69.7399926,225.499994 69,223.93001 69,221.97 C69,220.109991 69.699993,218.640005 71.1,217.56 Z M77.04,209.25 C75.839994,209.25 74.8550039,209.554997 74.085,210.165 C73.3149961,210.775003 72.93,211.549995 72.93,212.49 C72.93,213.330004 73.3099962,214.014997 74.07,214.545 C74.8300038,215.075003 75.8199939,215.34 77.04,215.34 C78.2600061,215.34 79.2449962,215.075003 79.995,214.545 C80.7450038,214.014997 81.12,213.320004 81.12,212.46 C81.12,211.519995 80.7350038,210.750003 79.965,210.15 C79.1949961,209.549997 78.2200059,209.25 77.04,209.25 Z M77.16,217.62 C75.4399914,217.62 74.0950049,218.004996 73.125,218.775 C72.1549951,219.545004 71.67,220.599993 71.67,221.94 C71.67,223.240006 72.1649951,224.294996 73.155,225.105 C74.145005,225.915004 75.439992,226.32 77.04,226.32 C78.640008,226.32 79.934995,225.915004 80.925,225.105 C81.915005,224.294996 82.41,223.240006 82.41,221.94 C82.41,220.639994 81.9300048,219.595004 80.97,218.805 C80.0099952,218.014996 78.7400079,217.62 77.16,217.62 Z M99.96,217.59 C99.96,216.429994 100.364996,215.440004 101.175,214.62 C101.985004,213.799996 102.959994,213.39 104.1,213.39 C105.220006,213.39 106.184996,213.799996 106.995,214.62 C107.805004,215.440004 108.21,216.429994 108.21,217.59 C108.21,218.750006 107.805004,219.739996 106.995,220.56 C106.184996,221.380004 105.220006,221.79 104.1,221.79 C102.959994,221.79 101.985004,221.380004 101.175,220.56 C100.364996,219.739996 99.96,218.750006 99.96,217.59 Z M125.28,224.22 C126.180004,223.259995 127.269994,222.78 128.55,222.78 C129.730006,222.78 130.969993,223.299995 132.27,224.34 C133.710007,225.480006 134.819996,226.05 135.6,226.05 C136.160003,226.05 136.614998,225.865002 136.965,225.495 C137.315002,225.124998 137.49,224.650003 137.49,224.07 C137.49,223.869999 137.45,223.650001 137.37,223.41 C137.049998,223.730002 136.690002,223.89 136.29,223.89 C135.429996,223.89 135,223.470004 135,222.63 C135,222.169998 135.169998,221.790002 135.51,221.49 C135.850002,221.189999 136.299997,221.04 136.86,221.04 C137.600004,221.04 138.194998,221.304997 138.645,221.835 C139.095002,222.365003 139.32,223.069996 139.32,223.95 C139.32,225.190006 138.930004,226.249996 138.15,227.13 C137.369996,228.010004 136.420006,228.45 135.3,228.45 C134.239995,228.45 132.965007,227.880006 131.475,226.74 C129.984993,225.599994 128.680006,225.03 127.56,225.03 C126.439994,225.03 125.740001,225.449996 125.46,226.29 C125.660001,226.25 125.78,226.23 125.82,226.23 C126.400003,226.23 126.69,226.519997 126.69,227.1 C126.69,228.000005 126.190005,228.45 125.19,228.45 C124.529997,228.45 123.995002,228.165003 123.585,227.595 C123.174998,227.024997 122.97,226.260005 122.97,225.3 C122.97,221.799982 125.379976,219.280008 130.2,217.74 L132.36,217.05 C134.780012,216.269996 135.99,214.960009 135.99,213.12 C135.99,211.879994 135.555004,210.900004 134.685,210.18 C133.814996,209.459996 132.620008,209.1 131.1,209.1 C129.759993,209.1 128.650004,209.369997 127.77,209.91 C126.889996,210.450003 126.370001,211.189995 126.21,212.13 C127.290005,212.21 127.83,212.679996 127.83,213.54 C127.83,214.060003 127.640002,214.504998 127.26,214.875 C126.879998,215.245002 126.410003,215.43 125.85,215.43 C125.169997,215.43 124.625002,215.195002 124.215,214.725 C123.804998,214.254998 123.6,213.640004 123.6,212.88 C123.6,211.239992 124.339993,209.870005 125.82,208.77 C127.300007,207.669995 129.129989,207.12 131.31,207.12 C133.430011,207.12 135.164993,207.674994 136.515,208.785 C137.865007,209.895006 138.54,211.329991 138.54,213.09 C138.54,214.290006 138.215003,215.349995 137.565,216.27 C136.914997,217.190005 136.010006,217.879998 134.85,218.34 C134.489998,218.480001 133.29001,218.899997 131.25,219.6 C129.789993,220.100003 128.620004,220.579998 127.74,221.04 C127.099997,221.380002 126.555002,221.809997 126.105,222.33 C125.654998,222.850003 125.380001,223.479996 125.28,224.22 Z M150.96,209.1 C149.159991,209.1 147.700006,209.854992 146.58,211.365 C145.459994,212.875008 144.830001,214.929987 144.69,217.53 C145.950006,215.349989 148.029985,214.26 150.93,214.26 C153.110011,214.26 154.889993,214.899994 156.27,216.18 C157.650007,217.460006 158.34,219.09999 158.34,221.1 C158.34,223.240011 157.600007,224.999993 156.12,226.38 C154.639993,227.760007 152.740012,228.45 150.42,228.45 C147.859987,228.45 145.845007,227.600009 144.375,225.9 C142.904993,224.199992 142.17,221.880015 142.17,218.94 C142.17,215.319982 142.979992,212.445011 144.6,210.315 C146.220008,208.184989 148.399986,207.12 151.14,207.12 C152.820008,207.12 154.249994,207.539996 155.43,208.38 C156.610006,209.220004 157.2,210.239994 157.2,211.44 C157.2,212.000003 157.005002,212.479998 156.615,212.88 C156.224998,213.280002 155.770003,213.48 155.25,213.48 C154.829998,213.48 154.465002,213.325002 154.155,213.015 C153.844998,212.704998 153.69,212.330002 153.69,211.89 C153.69,211.289997 153.969997,210.890001 154.53,210.69 C153.929997,209.629995 152.740009,209.1 150.96,209.1 Z M150.51,216.3 C148.889992,216.3 147.610005,216.744996 146.67,217.635 C145.729995,218.525004 145.26,219.729992 145.26,221.25 C145.26,222.810008 145.734995,224.054995 146.685,224.985 C147.635005,225.915005 148.899992,226.38 150.48,226.38 C152.020008,226.38 153.274995,225.900005 154.245,224.94 C155.215005,223.979995 155.7,222.740008 155.7,221.22 C155.7,219.739993 155.225005,218.550005 154.275,217.65 C153.324995,216.749996 152.070008,216.3 150.51,216.3 Z M173.19,217.59 C173.19,216.429994 173.594996,215.440004 174.405,214.62 C175.215004,213.799996 176.189994,213.39 177.33,213.39 C178.450006,213.39 179.414996,213.799996 180.225,214.62 C181.035004,215.440004 181.44,216.429994 181.44,217.59 C181.44,218.750006 181.035004,219.739996 180.225,220.56 C179.414996,221.380004 178.450006,221.79 177.33,221.79 C176.189994,221.79 175.215004,221.380004 174.405,220.56 C173.594996,219.739996 173.19,218.750006 173.19,217.59 Z M198.51,224.22 C199.410005,223.259995 200.499994,222.78 201.78,222.78 C202.960006,222.78 204.199994,223.299995 205.5,224.34 C206.940007,225.480006 208.049996,226.05 208.83,226.05 C209.390003,226.05 209.844998,225.865002 210.195,225.495 C210.545002,225.124998 210.72,224.650003 210.72,224.07 C210.72,223.869999 210.68,223.650001 210.6,223.41 C210.279998,223.730002 209.920002,223.89 209.52,223.89 C208.659996,223.89 208.23,223.470004 208.23,222.63 C208.23,222.169998 208.399998,221.790002 208.74,221.49 C209.080002,221.189999 209.529997,221.04 210.09,221.04 C210.830004,221.04 211.424998,221.304997 211.875,221.835 C212.325002,222.365003 212.55,223.069996 212.55,223.95 C212.55,225.190006 212.160004,226.249996 211.38,227.13 C210.599996,228.010004 209.650006,228.45 208.53,228.45 C207.469995,228.45 206.195007,227.880006 204.705,226.74 C203.214993,225.599994 201.910006,225.03 200.79,225.03 C199.669994,225.03 198.970001,225.449996 198.69,226.29 C198.890001,226.25 199.01,226.23 199.05,226.23 C199.630003,226.23 199.92,226.519997 199.92,227.1 C199.92,228.000005 199.420005,228.45 198.42,228.45 C197.759997,228.45 197.225002,228.165003 196.815,227.595 C196.404998,227.024997 196.2,226.260005 196.2,225.3 C196.2,221.799982 198.609976,219.280008 203.43,217.74 L205.59,217.05 C208.010012,216.269996 209.22,214.960009 209.22,213.12 C209.22,211.879994 208.785004,210.900004 207.915,210.18 C207.044996,209.459996 205.850008,209.1 204.33,209.1 C202.989993,209.1 201.880004,209.369997 201,209.91 C200.119996,210.450003 199.600001,211.189995 199.44,212.13 C200.520005,212.21 201.06,212.679996 201.06,213.54 C201.06,214.060003 200.870002,214.504998 200.49,214.875 C200.109998,215.245002 199.640003,215.43 199.08,215.43 C198.399997,215.43 197.855002,215.195002 197.445,214.725 C197.034998,214.254998 196.83,213.640004 196.83,212.88 C196.83,211.239992 197.569993,209.870005 199.05,208.77 C200.530007,207.669995 202.359989,207.12 204.54,207.12 C206.660011,207.12 208.394993,207.674994 209.745,208.785 C211.095007,209.895006 211.77,211.329991 211.77,213.09 C211.77,214.290006 211.445003,215.349995 210.795,216.27 C210.144997,217.190005 209.240006,217.879998 208.08,218.34 C207.719998,218.480001 206.52001,218.899997 204.48,219.6 C203.019993,220.100003 201.850004,220.579998 200.97,221.04 C200.329997,221.380002 199.785002,221.809997 199.335,222.33 C198.884998,222.850003 198.610001,223.479996 198.51,224.22 Z M223.35,228.45 C220.809987,228.45 218.815007,227.515009 217.365,225.645 C215.914993,223.774991 215.19,221.200016 215.19,217.92 C215.19,214.579983 215.944992,211.94501 217.455,210.015 C218.965008,208.08499 221.029987,207.12 223.65,207.12 C226.150013,207.12 228.124993,208.044991 229.575,209.895 C231.025007,211.745009 231.75,214.249984 231.75,217.41 C231.75,220.830017 231.000008,223.52499 229.5,225.495 C227.999992,227.46501 225.950013,228.45 223.35,228.45 Z M223.59,209.34 C219.909982,209.34 218.000001,212.089973 217.86,217.59 L217.86,218.04 C217.86,220.660013 218.339995,222.684993 219.3,224.115 C220.260005,225.545007 221.619991,226.26 223.38,226.26 C225.180009,226.26 226.589995,225.480008 227.61,223.92 C228.630005,222.359992 229.14,220.210014 229.14,217.47 C229.14,214.849987 228.660005,212.840007 227.7,211.44 C226.739995,210.039993 225.370009,209.34 223.59,209.34 Z M241.53,220.86 L241.44,212.16 C241.42,211.139995 241.315001,210.460002 241.125,210.12 C240.934999,209.779998 240.560003,209.61 240,209.61 C239.799999,209.61 239.510002,209.635 239.13,209.685 C238.749998,209.735 238.460001,209.76 238.26,209.76 C237.479996,209.76 237.09,209.410004 237.09,208.71 C237.09,208.009996 237.459996,207.66 238.2,207.66 C238.440001,207.66 238.814997,207.685 239.325,207.735 C239.835003,207.785 240.229999,207.81 240.51,207.81 C241.150003,207.81 241.679998,207.79 242.1,207.75 C242.720003,207.69 243.099999,207.66 243.24,207.66 C243.680002,207.66 243.949999,207.789999 244.05,208.05 C244.13,208.230001 244.17,208.539998 244.17,208.98 C244.17,209.04 244.16,209.279998 244.14,209.7 C244.039999,211.840011 243.99,213.779991 243.99,215.52 L243.99,218.91 C243.99,219.530003 244,220.359995 244.02,221.4 C244.06,222.660006 244.08,223.489998 244.08,223.89 C244.1,225.270007 244.559995,225.96 245.46,225.96 C245.680001,225.96 246.009998,225.935 246.45,225.885 C246.890002,225.835 247.219999,225.81 247.44,225.81 C248.400005,225.81 248.88,226.159997 248.88,226.86 C248.88,227.560004 248.440004,227.91 247.56,227.91 C247.219998,227.91 246.900002,227.89 246.6,227.85 C244.919992,227.629999 243.640004,227.52 242.76,227.52 C241.879996,227.52 240.800006,227.609999 239.52,227.79 C238.799996,227.890001 238.290001,227.94 237.99,227.94 C237.129996,227.94 236.7,227.580004 236.7,226.86 C236.7,226.159997 237.189995,225.81 238.17,225.81 C238.470002,225.81 238.779998,225.84 239.1,225.9 C239.580002,225.94 239.879999,225.96 240,225.96 C240.700003,225.96 241.129999,225.685003 241.29,225.135 C241.450001,224.584997 241.53,223.160011 241.53,220.86 Z M256.32,208.92 L256.26,209.25 C256.760003,208.449996 257.209998,207.910001 257.61,207.63 C258.010002,207.349999 258.549997,207.21 259.23,207.21 C260.210005,207.21 261.359993,207.719995 262.68,208.74 C264.160007,209.880006 265.299996,210.45 266.1,210.45 C266.940004,210.45 267.459999,210.170003 267.66,209.61 L267.42,209.61 C267.139999,209.61 266.885001,209.490001 266.655,209.25 C266.424999,209.009999 266.31,208.740002 266.31,208.44 C266.31,208.059998 266.454999,207.735001 266.745,207.465 C267.035001,207.194999 267.379998,207.06 267.78,207.06 C269.100007,207.06 269.76,207.949991 269.76,209.73 C269.76,211.050007 269.430003,212.209995 268.77,213.21 C268.349998,213.830003 267.900002,214.369998 267.42,214.83 C267.199999,215.050001 266.760003,215.449997 266.1,216.03 C264.739993,217.210006 263.810003,218.299995 263.31,219.3 C262.589996,220.720007 262.23,222.43999 262.23,224.46 C262.23,224.42 262.24,224.639998 262.26,225.12 C262.3,226.080005 262.32,226.510001 262.32,226.41 C262.32,227.670006 261.820005,228.3 260.82,228.3 C259.779995,228.3 259.26,227.480008 259.26,225.84 C259.26,223.259987 259.739995,221.01001 260.7,219.09 C261.480004,217.529992 263.139987,215.71001 265.68,213.63 C266.720005,212.769996 267.309999,212.060003 267.45,211.5 C266.769997,212.080003 265.910005,212.37 264.87,212.37 C263.589994,212.37 262.340006,211.910005 261.12,210.99 L259.89,210.06 C259.449998,209.739998 258.960003,209.58 258.42,209.58 C257.139994,209.58 256.5,210.399992 256.5,212.04 C256.5,212.540003 256.54,212.989998 256.62,213.39 C256.760001,214.090004 256.83,214.609998 256.83,214.95 C256.83,215.290002 256.715001,215.579999 256.485,215.82 C256.254999,216.060001 255.970002,216.18 255.63,216.18 C254.829996,216.18 254.43,215.750004 254.43,214.89 C254.43,214.549998 254.484999,214.030004 254.595,213.33 C254.705001,212.629997 254.76,212.090002 254.76,211.71 C254.76,211.149997 254.72,210.550003 254.64,209.91 C254.56,209.269997 254.52,208.710002 254.52,208.23 C254.52,207.409996 254.869997,207 255.57,207 C256.150003,207 256.44,207.349997 256.44,208.05 C256.44,208.190001 256.4,208.479998 256.32,208.92 Z" id="8-•-26-•-2017"></path>
                <rect id="Rectangle" x="137" y="157" width="65" height="2" rx="1"></rect>
                <path d="M240.184184,70.6824402 C239.61549,71.906014 238.445541,74.2633703 236.701099,77.0308182 C236.394673,75.6906497 235.866122,74.1092509 235.123474,72.3111916 C234.51196,70.8276251 234.175204,69.4016859 234.140413,68.1548825 L240.184184,70.6824402 Z M228.350435,87.2822134 C228.340177,85.9666147 228.193877,84.4097857 227.913321,82.6385297 C227.637672,80.8949705 227.665772,79.3542235 227.996284,78.0591741 C228.077462,77.7393206 228.225546,77.4377827 228.436074,77.1621547 C230.268385,74.7592326 231.696142,72.4166182 232.689908,70.6203457 C232.876796,71.3851352 233.139511,72.1794084 233.475375,72.9933373 C234.517758,75.517768 234.933909,77.1804703 235.098942,78.1306497 C235.216249,78.8065414 235.045418,79.5239782 234.629713,80.0993572 C232.670282,82.8114114 230.56143,85.2237146 228.350435,87.2822134 L228.350435,87.2822134 Z M103.235001,70.7619569 C102.244804,70.5287676 101.287168,70.3031725 100.49947,70.0860652 L105.969641,68.5073468 C106.261794,69.317702 106.751094,70.5604849 107.475008,72.0427112 C106.586061,71.6509353 105.598986,71.3243809 104.524934,71.0670685 C104.081129,70.9611952 103.649814,70.8593424 103.235001,70.7619569 L103.235001,70.7619569 Z M104.110122,72.805267 C106.677944,73.4204044 108.1677,74.3388665 108.966102,75.000463 C109.1182,75.1264388 109.24755,75.2774311 109.362181,75.4619276 C110.001349,76.4925172 110.685567,77.4846885 111.404575,78.4223597 C110.624906,78.2968306 109.795281,78.2311624 108.925513,78.2271419 C106.995075,78.2168672 105.355451,78.0868709 104.052137,77.8398332 C103.307259,77.6986688 102.668983,77.2273762 102.301897,76.5483575 C101.304117,74.7011587 100.577526,73.056772 100.08555,71.8260506 C100.891535,72.0467317 101.839805,72.2696464 102.82688,72.5014955 L102.98879,72.539467 C103.351417,72.6252377 103.726086,72.7132421 104.110122,72.805267 L104.110122,72.805267 Z M214.139767,95.1936745 C214.779381,93.9638466 215.405168,92.3954028 216.006423,90.5160399 C216.452011,89.1240516 217.025612,87.942023 217.711168,87.0012247 C217.913667,86.7233631 218.17326,86.4924074 218.483254,86.314165 C221.063119,84.8305986 223.568496,82.7627186 225.943186,80.1578779 C225.929359,81.0276472 225.99894,81.95147 226.15193,82.9177315 C226.373609,84.3204411 226.506974,85.5886872 226.548455,86.6871786 C226.600195,88.0626381 225.960581,89.3733229 224.837019,90.1926125 C221.444033,92.6670102 217.85033,94.346688 214.139767,95.1936745 L214.139767,95.1936745 Z M203.20344,91.6082772 C204.332354,90.588409 205.465283,89.8361277 206.570557,89.3737696 C206.972434,89.2044617 207.418915,89.1200311 207.866734,89.1387934 C208.023738,89.1437074 208.17985,89.1472812 208.33507,89.1472812 C210.623675,89.1472812 212.898898,88.7295953 215.117029,87.9044983 C214.814172,88.5424185 214.543429,89.2334987 214.307476,89.9714847 C213.804795,91.5412687 213.279812,92.8912651 212.745908,93.9821622 C212.237429,95.0230264 211.20129,95.7167869 210.042938,95.7922831 C209.479596,95.8293611 208.905103,95.8481234 208.33507,95.8481234 C205.544231,95.8481234 202.568287,95.415249 199.475481,94.561115 C200.590122,93.8302764 201.839912,92.8407854 203.20344,91.6082772 L203.20344,91.6082772 Z M193.116809,88.273938 C194.353664,87.6677352 195.539224,87.2732789 196.639592,87.1008439 C197.265825,87.0021182 197.942014,87.0820816 198.594117,87.3300127 C200.000018,87.8647399 201.20119,88.2122903 202.127158,88.356135 C202.747593,88.5066806 203.368027,88.6371237 203.982217,88.7465708 C203.318071,89.1812321 202.657494,89.6949633 202.008067,90.2819571 C200.614654,91.5412687 199.346131,92.5325467 198.237289,93.2285408 C197.587416,93.6350586 196.760914,93.7168089 196.024956,93.4465415 C195.271158,93.16868 194.512898,92.8666953 193.779171,92.5517557 C193.772481,92.5490754 193.76579,92.5459483 193.757315,92.543268 C193.750179,92.5396942 193.74215,92.5365672 193.734122,92.5334401 C192.22697,91.9531472 190.542743,91.1302837 188.715784,90.0827187 C189.988768,89.6887092 191.463359,89.0825063 193.116809,88.273938 L193.116809,88.273938 Z M181.313391,93.5783248 C182.209029,91.5819205 183.195212,90.4061461 183.936522,89.737402 C184.887468,90.3806829 186.514157,91.4349487 188.428538,92.4860875 C188.368769,92.6920267 188.309893,92.8854577 188.251462,93.0672739 C187.836204,94.3623233 186.826381,95.4009539 185.550275,95.8458898 C183.489595,96.5646668 181.37316,97.1328982 179.245128,97.5376291 C179.922654,96.4601337 180.615346,95.1329202 181.313391,93.5783248 L181.313391,93.5783248 Z M170.459134,94.7594599 C172.108571,92.7563548 173.589407,91.8879256 174.541245,91.5122317 C174.70717,91.4465635 174.894058,91.4023379 175.09522,91.3800018 C177.14921,91.1561937 179.188927,90.7595038 181.176904,90.1984199 C180.626943,90.9748242 180.12783,91.8602288 179.68581,92.8452526 C179.33032,93.6372922 178.972154,94.3752783 178.620679,95.0382149 C177.642971,96.8809466 175.762488,98.10184 173.712958,98.2255823 C171.593401,98.3537917 169.468045,98.3252014 167.293625,98.1456189 C168.265981,97.268702 169.327098,96.1344727 170.459134,94.7594599 L170.459134,94.7594599 Z M159.546447,93.1454504 C161.029067,92.063041 162.462177,91.3746411 163.805633,91.0990131 C164.112951,91.0360252 164.430528,91.0302178 164.748997,91.0824844 C166.861418,91.426461 168.980083,91.6015763 171.046562,91.6042566 C170.373942,92.1769553 169.717379,92.8519535 169.082671,93.6221036 C168.138861,94.7688411 167.239209,95.7453772 166.410031,96.5266954 C165.47425,97.4062926 164.172274,97.8003021 162.927837,97.5773874 C160.471077,97.1391524 158.01075,96.4945313 155.598593,95.6582662 C156.767651,95.0502765 158.09059,94.2086507 159.546447,93.1454504 L159.546447,93.1454504 Z M150.165444,89.2536012 C151.614165,88.6326565 152.972787,88.2846594 154.202951,88.2212247 C154.623115,88.196655 155.051755,88.2797454 155.475488,88.4597747 C156.936698,89.0816129 158.257853,89.548885 159.387213,89.8450622 C159.868038,89.9911406 160.358231,90.1287312 160.853775,90.2591742 C160.074106,90.6429091 159.285071,91.1253698 158.495589,91.7016422 C157.421538,92.4860875 156.413499,93.1485774 155.500466,93.6721366 C154.16816,94.4355859 152.520061,94.5034877 151.091412,93.8530593 C150.800597,93.7203826 150.509782,93.5854723 150.224766,93.4483284 C148.80593,92.7460802 147.257743,91.8767576 145.61009,90.859123 C146.915634,90.5307817 148.442411,89.9933742 150.165444,89.2536012 L150.165444,89.2536012 Z M141.625216,95.7556518 C142.230931,94.7911772 142.858502,93.5707305 143.47626,92.1550659 C144.701518,92.9359374 145.888416,93.6475668 147.020452,94.2796796 C145.247018,94.8983907 143.439239,95.3929129 141.625216,95.7556518 L141.625216,95.7556518 Z M134.34682,76.6502103 C136.182699,76.602411 137.755864,76.8615102 139.019926,77.4087457 C139.31877,77.5378486 139.593081,77.7250254 139.835278,77.9649156 C141.076147,79.1947435 142.386597,80.3669442 143.744327,81.4609683 C142.945925,81.5016201 142.110947,81.6133008 141.248762,81.7946703 C139.724661,82.1154173 138.359349,82.3209098 137.190738,82.4053404 C135.738448,82.5089801 134.339237,81.9577241 133.34904,80.8905033 C132.796403,80.2945751 132.249564,79.6803312 131.723689,79.0647472 C131.001113,78.2182074 130.294594,77.342184 129.615729,76.4505252 C130.930639,76.6238537 132.516293,76.6899687 134.34682,76.6502103 L134.34682,76.6502103 Z M127.559509,66.9733006 C131.459191,67.7403237 132.827179,69.3931981 133.153677,69.8819129 L133.524332,69.6330883 L133.179993,69.9216712 L133.208093,69.9663435 C133.225935,70.0020813 133.248236,70.0346921 133.274552,70.0637291 C134.374028,71.6880133 135.562711,73.2506497 136.808486,74.7096464 C136.899923,74.8168599 136.992252,74.9236266 137.085027,75.0294999 C136.343718,74.9164791 135.553344,74.8592985 134.721489,74.8592985 C134.58411,74.8592985 134.445394,74.8606387 134.306231,74.8633191 C132.807554,74.89727 131.473464,74.8539379 130.340535,74.7337694 C128.946231,74.5863509 127.718743,73.8385369 126.973419,72.6819715 C125.530942,70.4438902 124.272232,68.1486284 123.223158,65.846219 C124.427898,66.2647983 125.88108,66.6431725 127.559509,66.9733006 L127.559509,66.9733006 Z M123.998813,57.275395 C126.799465,58.6338791 127.960048,60.1509498 128.402514,60.9345016 C128.440427,61.0010633 128.470312,61.0698586 128.499304,61.141781 L128.723659,61.6782951 L128.729458,61.6925902 C129.339633,63.1672222 130.046153,64.6396206 130.836972,66.0838755 C129.952931,65.7193497 128.971655,65.4298733 127.903401,65.2194669 C126.512665,64.9460725 125.274918,64.63426 124.22406,64.2934105 C122.980961,63.889573 121.990318,62.9264386 121.573722,61.7162665 C120.777104,59.4035825 120.21287,57.1315502 119.892171,54.9452888 C120.982726,55.6989102 122.358743,56.4802284 123.998813,57.275395 L123.998813,57.275395 Z M126.289648,51.6038021 C126.360567,53.3205579 126.651382,55.1543551 127.157185,57.0716894 C126.452896,56.5642123 125.656724,56.0942599 124.776698,55.6676396 C123.282481,54.9426084 122.013512,54.2265118 121.005919,53.5385586 C120.10939,52.9265484 119.574594,51.9039998 119.574148,50.7845125 C119.574148,48.1466142 119.852473,45.5734908 120.402434,43.1200891 C121.175859,44.2735274 122.256155,45.5788515 123.62682,47.0141719 C124.799891,48.2426596 125.636653,49.4796351 126.113018,50.6911474 C126.21739,50.9556073 126.274928,51.2544649 126.289648,51.6038021 L126.289648,51.6038021 Z M127.652284,42.4097998 L127.602774,42.5527511 C127.57512,42.631821 127.547912,42.7113377 127.534085,42.7586903 C127.479668,42.8927072 127.452906,42.9999206 127.441309,43.0562077 C126.979663,44.5554095 126.651828,46.0943696 126.462709,47.648965 C126.018458,47.0172989 125.501504,46.391887 124.91586,45.7785366 C123.888196,44.7023813 123.024227,43.6914476 122.347592,42.7734322 C121.448832,41.5543256 121.244102,39.974267 121.800307,38.5469876 C122.745901,36.1194958 123.987216,33.8416561 125.497044,31.7617147 C125.772693,33.1121578 126.2669,34.7118722 126.972081,36.5345013 C128.159871,39.6043805 127.904293,41.544051 127.652284,42.4097998 L127.652284,42.4097998 Z M134.026121,28.8066433 C134.009172,29.9221101 133.884282,30.9504661 133.653682,31.8622273 C133.498462,32.475131 133.208985,33.0299608 132.815582,33.4677491 C131.490859,34.9428279 130.340535,36.5894482 129.385129,38.3763395 C129.215636,37.5726851 128.964964,36.7408872 128.635791,35.8889868 C128.149167,34.6314621 127.765131,33.4717696 127.493941,32.4416268 C127.081805,30.8754166 127.524272,29.2091405 128.649172,28.0936736 C130.401196,26.3554752 132.365087,24.8339372 134.498918,23.5598838 C134.218808,24.9594664 134.056451,26.7468043 134.026121,28.8066433 L134.026121,28.8066433 Z M143.417829,23.8203232 C142.882588,25.1301145 142.241636,26.2362002 141.512369,27.1077564 C141.244302,27.4285034 140.88569,27.6902829 140.4459,27.8855008 C138.749629,28.6391222 137.147918,29.6120845 135.669759,30.7851786 C135.753168,30.1597667 135.800001,29.5071046 135.81026,28.8329999 C135.836576,27.0349406 135.965926,25.4839189 136.193404,24.2228204 C136.401702,23.0698288 137.182263,22.1040141 138.281739,21.6380822 C140.601566,20.6557387 143.016398,19.9673389 145.473158,19.5876245 C144.792955,20.7231939 144.103831,22.1419855 143.417829,23.8203232 L143.417829,23.8203232 Z M153.090986,23.3646659 C152.302396,24.1611727 151.495519,24.8178552 150.693995,25.3163979 C150.060625,25.7099607 149.339833,25.9377893 148.608782,25.975314 C147.032495,26.0561709 145.486093,26.28802 143.998121,26.6655008 C144.390631,26.0047977 144.749243,25.2793199 145.068604,24.4971082 C145.580206,23.2458376 146.098944,22.1370716 146.6101,21.2020807 C147.272908,19.9892283 148.53474,19.2356069 149.904513,19.2347134 C152.183305,19.2347134 154.496441,19.5277636 156.794413,20.1058229 C155.686908,20.9063502 154.445147,21.9990342 153.090986,23.3646659 L153.090986,23.3646659 Z M163.085733,26.8307882 C162.308741,27.1506418 161.547805,27.3954459 160.824783,27.5584997 C159.752961,27.8001768 158.607544,27.7166396 157.511191,27.3163759 C155.921969,26.736083 154.295726,26.3362661 152.662346,26.1231793 C153.235501,25.6853909 153.802411,25.1837212 154.357725,24.6235308 C155.542393,23.4285473 156.642761,22.4502243 157.628498,21.7162587 C158.468381,21.0904 159.579454,20.9349405 160.527278,21.3097409 C163.075028,22.3162074 165.472465,23.6554825 167.667403,25.2958486 C166.35606,25.6040874 164.819917,26.1187121 163.086179,26.8307882 L163.085733,26.8307882 Z M165.012158,31.7246367 C163.923387,30.7883057 162.76102,29.9511471 161.542007,29.226116 C162.261907,29.0438531 163.005001,28.7959219 163.76326,28.4845561 C166.515741,27.3530072 168.261967,26.9567641 169.230309,26.8214071 C168.157149,27.8774598 166.361413,29.7541424 165.012158,31.7246367 L165.012158,31.7246367 Z M190.343811,23.2418171 C188.891968,25.2945085 187.520857,26.267024 186.626111,26.7208944 C186.550731,26.7593126 186.473567,26.7870094 186.392835,26.8111324 C186.018166,26.9228131 185.635022,27.0470021 185.255,27.1801255 C185.202368,27.1890599 185.151966,27.2073756 185.106025,27.2337322 C184.477562,27.4579871 183.852667,27.7081519 183.237585,27.9815462 C183.531522,27.2958267 183.786208,26.5538201 183.998074,25.762674 C184.533316,23.7653763 185.113607,22.1330511 185.722445,20.9108175 C186.028425,20.2970203 186.607378,19.8520844 187.271524,19.7203011 C188.8884,19.4008943 190.460672,19.2333733 191.83892,19.2333733 C191.929465,19.2333733 192.019564,19.2342667 192.108325,19.2356069 C192.579338,19.2432012 193.064177,19.2664308 193.573549,19.3052957 C192.582014,20.2885326 191.499487,21.6081518 190.343811,23.2418171 L190.343811,23.2418171 Z M199.872006,24.7660354 C198.580736,25.5053616 197.338083,25.993183 196.17973,26.2160976 C195.809075,26.2875733 195.409428,26.28802 194.993724,26.2160976 C193.994606,26.0458962 192.987905,25.951191 192.000384,25.935109 L191.999492,25.935109 C191.939724,25.9342155 191.879509,25.9337688 191.818848,25.9337688 C191.370137,25.9337688 190.895556,25.9583386 190.399566,26.0065846 C190.883513,25.4874927 191.352296,24.9080932 191.800115,24.275087 C192.829563,22.8192173 193.805041,21.6211067 194.698003,20.7138127 C195.431284,19.9704659 196.455826,19.65776 197.444239,19.878441 C199.894754,20.4261232 202.264983,21.320909 204.504524,22.5431426 C203.182477,23.0148819 201.629829,23.7595689 199.872006,24.7660354 L199.872006,24.7660354 Z M208.226684,30.376874 C207.159769,30.5113375 206.157975,30.5345671 205.249848,30.4452226 C204.636996,30.384915 204.060273,30.1722749 203.581232,29.8300852 C202.090583,28.765098 200.497347,27.9060501 198.830961,27.2672364 C199.464331,27.0059036 200.108405,26.6887304 200.756939,26.317057 C202.34973,25.4057425 203.772581,24.718236 204.987133,24.2741936 C205.951014,23.9208358 207.010347,24.065574 207.81767,24.6628424 C209.912249,26.2120771 211.807451,28.0414071 213.46224,30.1110739 C212.044742,30.0288769 210.289595,30.117328 208.226684,30.376874 L208.226684,30.376874 Z M214.144673,38.8663944 C212.911833,38.5635163 211.824847,38.1489576 210.914044,37.6347796 C210.525547,37.4154387 210.198604,37.0951384 209.942134,36.68326 C208.940786,35.0714841 207.773959,33.596852 206.4644,32.286614 C207.098216,32.2821468 207.765038,32.2361343 208.449701,32.1499168 C210.296285,31.9171742 211.889968,31.8300633 213.193281,31.8921578 C214.25752,31.9421907 215.222294,32.5131025 215.774039,33.4181629 C217.111251,35.6106785 218.187533,37.9653545 218.981475,40.4299243 C217.705815,39.867947 216.084479,39.3439411 214.144673,38.8663944 L214.144673,38.8663944 Z M213.959123,46.8537984 C213.68838,46.4973136 213.501045,46.0586318 213.402026,45.5502612 C213.026018,43.6141645 212.442605,41.7383754 211.664274,39.9577382 C212.306564,40.207903 212.99435,40.4236701 213.719602,40.6019125 C215.408736,41.0173648 216.851659,41.4748089 218.007781,41.9612901 C219.041243,42.3959514 219.783891,43.3112864 219.993974,44.4093311 C220.396743,46.5053546 220.601027,48.6505176 220.601027,50.7845125 C220.601027,51.3241536 220.581848,51.8816637 220.543489,52.4503418 C219.573363,51.5238387 218.315099,50.5236263 216.788322,49.4666801 C215.606329,48.6491774 214.654937,47.7695802 213.959123,46.8537984 L213.959123,46.8537984 Z M213.771788,53.0020445 C213.863672,52.2162591 213.910505,51.470232 213.910505,50.7845125 C213.910505,50.332429 213.898462,49.8727512 213.875268,49.4099463 C214.43861,49.9415465 215.07421,50.4525974 215.774039,50.9368449 C216.890018,51.7096754 217.864604,52.4588296 218.669696,53.1633115 C219.725461,54.0871342 220.197366,55.520221 219.901644,56.9032749 C219.554183,58.5288992 219.077818,60.2103639 218.482362,61.9132713 C217.853899,60.7960175 217.008663,59.5425133 215.960035,58.1733079 L215.959589,58.1733079 C214.852531,56.7272661 214.132631,55.3191958 213.820852,53.9884085 C213.747703,53.6779361 213.731199,53.3460211 213.771788,53.0020445 L213.771788,53.0020445 Z M211.168283,62.2880717 C211.944384,60.4448934 212.56571,58.6343258 213.02245,56.8876396 C213.428342,57.6738717 213.937267,58.4681449 214.545213,59.2610779 C215.482332,60.4850984 216.251296,61.6175408 216.830249,62.6275811 C217.363261,63.5567645 217.423029,64.6959077 216.989929,65.673784 C216.07199,67.7470246 214.998384,69.8166914 213.791414,71.8394523 C213.418975,70.5756734 212.847604,69.1166767 212.086223,67.4865852 C211.454638,66.1348019 211.070602,64.8536009 210.943482,63.6782731 C210.89531,63.2311036 210.973366,62.7504298 211.168283,62.2880717 L211.168283,62.2880717 Z M206.344417,71.9386248 C206.410876,71.3002579 206.643706,70.6583172 207.017038,70.0833849 C207.933639,68.6690605 208.778875,67.2181047 209.538026,65.7555342 C209.763274,66.5654427 210.074606,67.3976873 210.469347,68.2437803 C211.220469,69.8528759 211.777121,71.2868562 212.122352,72.505516 C212.374807,73.3976215 212.211559,74.3585223 211.673641,75.1416274 C210.380586,77.0241173 208.984051,78.832898 207.518381,80.5237439 C207.394829,79.2340551 207.124086,77.7268123 206.708382,76.0256918 C206.340849,74.5238097 206.218635,73.1487969 206.344417,71.9386248 L206.344417,71.9386248 Z M202.023678,86.0657872 C200.977281,85.8397454 199.634716,85.377834 198.025422,84.6903276 C198.01561,83.1643225 198.216771,81.8223671 198.624447,80.6970723 C198.838544,80.1082917 199.184667,79.5762448 199.654787,79.116567 C200.545965,78.2436706 201.403244,77.3403971 202.202538,76.4326563 C203.00094,75.5267024 203.781055,74.5774164 204.531286,73.5995402 C204.583918,74.502367 204.732001,75.456567 204.97509,76.4505252 C205.329688,77.9037146 205.575007,79.2161862 205.702573,80.3517556 C205.844412,81.6124074 205.419341,82.8386615 204.535746,83.7160251 C203.725301,84.5210197 202.880957,85.3108256 202.023678,86.0657872 L202.023678,86.0657872 Z M184.562308,87.456882 L184.337061,87.2982954 L184.336169,87.2978487 C184.331262,87.2942749 184.326356,87.2907011 184.321003,87.2875741 C184.320111,87.2866806 184.318773,87.2857872 184.317881,87.2853404 C182.387889,85.9536597 180.495809,84.4745605 178.680894,82.87976 C179.939604,82.7551244 181.40126,82.4937915 183.042668,82.0993353 C185.514147,81.5038537 187.19659,81.6856699 188.17296,81.9429823 C188.359848,81.9921218 188.543169,82.0769991 188.718014,82.1949339 C189.874137,82.9731251 191.059251,83.7026234 192.240797,84.3642199 L192.243473,84.3655601 C192.244811,84.3664536 192.245704,84.367347 192.247488,84.3677937 C192.383974,84.4432899 193.40361,85.0012467 194.823339,85.6865195 C194.012447,85.9259629 193.178808,86.2543042 192.333126,86.6684162 C191.158271,87.2429018 190.065932,87.7141944 189.085547,88.0688923 C187.581964,88.6125539 185.8906,88.3847253 184.562308,87.456882 L184.562308,87.456882 Z M182.275042,25.2994224 C181.853985,26.8709933 181.262989,28.1852518 180.519449,29.2064602 C180.374042,29.4061453 180.180909,29.5812606 179.944956,29.7268923 C178.504264,30.6176576 177.159469,31.6317184 175.948485,32.7400377 C175.908787,32.7708615 175.830731,32.8325093 175.720115,32.9245342 C175.777207,32.1731464 175.777207,31.3802134 175.720561,30.5537762 C175.623771,29.147046 175.601915,27.8779065 175.656332,26.7820955 C175.731266,25.2636846 176.604156,23.8676758 177.933785,23.1399643 C179.839692,22.0964198 181.839266,21.2409456 183.891918,20.5909639 C183.32144,21.8413411 182.779061,23.4196128 182.275042,25.2994224 L182.275042,25.2994224 Z M194.893366,83.2286505 C195.415227,82.8319607 195.936195,82.4187421 196.452704,81.9921218 C196.351008,82.5916238 196.286779,83.2273104 196.260463,83.8947143 C195.753767,83.6552708 195.288999,83.4269955 194.893366,83.2286505 L194.893366,83.2286505 Z M159.271244,50.7845125 C159.271244,56.6410486 161.112921,63.0104225 164.598683,69.2207631 C163.358261,71.0576874 161.989826,72.8146482 160.528616,74.4460799 C158.32788,76.9035022 154.720351,80.3892803 149.95893,83.1415396 C145.733196,80.5362521 141.879901,77.2117409 138.503418,73.2577972 C132.329851,66.0284819 128.494844,57.4174528 128.494844,50.7845125 C128.494844,39.6682619 136.502952,28.1691698 149.904513,28.1691698 C154.841226,28.1691698 159.891232,30.1584265 163.816784,33.6375038 C160.799805,38.7234431 159.271244,44.4901879 159.271244,50.7845125 L159.271244,50.7845125 Z M168.904257,44.5813194 C168.431906,46.5522605 168.19194,48.6393495 168.19194,50.7845125 C168.19194,50.9279105 168.193724,51.0730954 168.196846,51.2214074 C167.658036,50.6393275 167.042954,50.0737764 166.356506,49.5310082 C164.883254,48.3655084 163.694571,47.2786318 162.824357,46.2998621 C162.253432,45.6588148 162.017926,44.7711766 162.194556,43.9250836 C162.876989,40.6568594 164.0737,37.5722384 165.754805,34.7440362 C166.152669,36.0904588 166.811016,37.6825789 167.718697,39.4944867 C168.414065,40.8833479 168.839136,42.201627 168.982313,43.4126925 C169.026471,43.787493 169.000155,44.1810558 168.904257,44.5813194 L168.904257,44.5813194 Z M176.367757,35.3502391 C177.869556,38.1123263 178.947176,41.0870535 179.579208,44.2136665 C178.407028,43.5319675 176.922624,42.8458013 175.150528,42.167676 C174.160777,41.7888551 173.2696,41.3367716 172.496175,40.8208067 C173.615277,38.2579579 175.354812,36.3312424 176.367757,35.3502391 L176.367757,35.3502391 Z M192.718946,82.0667245 C189.591797,80.2548167 186.573925,78.023883 183.744281,75.4324439 C181.491805,73.3708181 179.45744,71.166241 177.692927,68.8772333 C179.292407,65.6644028 180.511866,62.4399575 181.319635,59.2874346 C181.392785,59.1922826 181.427576,59.0685404 181.407058,58.9425645 C182.109117,56.1000673 182.465053,53.3562957 182.465053,50.7845125 C182.465053,44.7760906 180.950319,38.9231282 178.082761,33.832275 C182.758544,29.8524214 188.50927,28.088313 191.96381,28.1687231 L191.964702,28.1687231 C195.053046,28.218756 198.018286,29.061722 200.794406,30.684666 C201.095034,30.8959659 201.316267,31.0353434 201.943838,31.4101438 C203.860895,32.7203819 205.561626,34.3674489 206.999642,36.3075661 C207.00098,36.31248 207.002764,36.3165006 207.004549,36.3209678 C207.027296,36.3736811 207.239609,36.8467605 207.811426,37.476193 C210.342673,41.3787635 211.680331,45.9800085 211.680331,50.7845125 C211.680331,56.5137326 208.232482,66.2094046 200.529908,74.955344 C198.896528,76.8096904 196.227902,79.5320192 192.718946,82.0667245 L192.718946,82.0667245 Z M175.838314,80.214165 C174.772737,79.1527515 173.749979,78.0569405 172.794573,76.9530884 C173.401626,76.0770649 174.129109,74.9477497 174.962748,73.5883721 C177.291049,73.606241 178.752259,74.1423084 179.576085,74.5979657 C179.746917,74.6922242 179.906597,74.8164132 180.065386,74.9776801 C180.78484,75.711199 181.516337,76.4188079 182.239805,77.0812978 C183.315195,78.0658749 184.441879,79.0187347 185.601123,79.9242419 C184.661328,79.9653404 183.665332,80.110972 182.626071,80.3611368 C180.977527,80.7582734 179.516317,81.0120119 178.283031,81.1165451 C177.381148,81.190701 176.490863,80.8636999 175.838314,80.214165 L175.838314,80.214165 Z M168.829323,81.9032239 C169.722731,80.9061386 170.595621,79.8612539 171.429706,78.7922462 C172.544793,80.0591521 173.748195,81.3162302 175.01315,82.5353367 C175.054631,82.6063657 175.115292,82.6644396 175.187549,82.7028578 C175.529212,83.0303056 175.871767,83.3559665 176.221012,83.6758201 C177.831197,85.1504521 179.525683,86.5504814 181.267449,87.8455309 C175.174168,89.7016642 168.598277,89.8526565 162.139694,88.2824258 C164.489405,86.3838538 166.736528,84.2413712 168.829323,81.9032239 L168.829323,81.9032239 Z M154.886722,85.7468271 C155.096358,84.2471786 155.492883,82.9686579 156.065592,81.9425355 C156.236423,81.6369771 156.462563,81.3684967 156.738658,81.1429017 C158.570077,79.6486139 160.305598,78.0064608 161.901957,76.2553074 C161.848879,77.2001261 161.895713,78.2115066 162.042904,79.2769405 C162.288669,81.055344 162.39661,82.604132 162.363603,83.8795257 C162.341301,84.7354466 161.952805,85.5386542 161.29758,86.0832093 C160.694541,86.5844323 160.075445,87.074934 159.454564,87.5444397 C158.150804,87.1593646 156.616445,86.5549486 154.886722,85.7468271 L154.886722,85.7468271 Z M170.422113,50.7845125 C170.422113,49.1459332 170.570643,47.5578335 170.865026,46.0416563 C171.163423,47.5761492 171.314183,49.1646955 171.314183,50.7845125 C171.314183,52.1032382 171.1661,53.5113085 170.872609,54.9895143 C170.573319,53.5434726 170.422113,52.1354023 170.422113,50.7845125 L170.422113,50.7845125 Z M180.131399,48.1640364 C180.200088,49.033359 180.234879,49.9151898 180.234879,50.7845125 C180.234879,52.5052887 180.063601,54.3145162 179.725507,56.1760101 C178.886516,55.1588223 177.78704,54.0388882 176.445367,52.8367571 L176.445367,52.8363104 C175.235721,51.7530075 174.33027,50.6348603 173.754885,49.5126926 C173.57781,49.1664824 173.469423,48.7773868 173.432848,48.3561272 C173.265585,46.4477273 172.898053,44.5907006 172.339171,42.8207848 C173.008223,43.199159 173.735706,43.5391151 174.514483,43.8370792 C176.10192,44.4446222 177.452068,45.0628866 178.527458,45.6748969 C179.450304,46.2006896 180.05022,47.1312132 180.131399,48.1640364 L180.131399,48.1640364 Z M164.397076,73.3498221 C164.45506,73.2336742 164.521965,73.1278009 164.600467,73.0250547 C165.394409,71.9935717 166.145532,70.9379657 166.829749,69.8948679 C167.143312,69.4347434 167.459104,68.9415614 167.774005,68.4202359 C167.925657,69.1689433 168.14466,69.9422205 168.429676,70.7306863 C169.096944,72.5765449 169.544763,74.1834069 169.759752,75.5070466 C169.915418,76.4643736 169.651365,77.4507376 169.035837,78.2137402 C168.427892,78.968255 167.799875,79.708028 167.169628,80.4116164 C166.206639,81.487325 165.19637,82.5317629 164.157109,83.5279548 C164.162461,82.2463071 164.046492,80.7399577 163.81054,79.0325831 C163.385469,75.9560031 163.995644,74.1516896 164.397076,73.3498221 L164.397076,73.3498221 Z M169.055017,60.8263947 C168.667413,60.6785294 168.303448,60.5543405 167.950189,60.4493606 C166.484072,60.0102321 165.203953,59.5456404 164.145066,59.0689871 C163.09064,58.5941208 162.326136,57.6434946 162.09955,56.5253474 C161.702579,54.5637875 161.501418,52.6326047 161.501418,50.7845125 C161.501418,49.7472221 161.548697,48.701444 161.642365,47.6641536 C162.556736,48.6634725 163.765936,49.7592836 165.250786,50.9332711 C167.314589,52.5655963 168.214687,54.0496095 168.60586,55.018998 C168.859208,56.3515722 169.235661,57.7328392 169.725407,59.1261676 C169.602748,59.4562958 169.372594,60.0580314 169.055017,60.8263947 L169.055017,60.8263947 Z M175.255346,54.1679911 C176.492647,55.2772038 177.516297,56.3162811 178.297304,57.2570794 C178.906587,57.9905982 179.110871,58.9796425 178.844142,59.9021252 C178.308009,61.7569183 177.615317,63.655937 176.779447,65.5621033 C176.251788,64.3675664 175.50914,63.0099758 174.562208,61.510774 C173.764698,60.2469952 173.221428,59.0216345 172.948008,57.8695363 C172.803047,57.2579728 172.803493,56.6070977 172.949347,55.9352265 C173.219198,54.6906568 173.398058,53.4795912 173.482804,52.3194521 C173.99396,52.9506714 174.58674,53.5693825 175.255346,54.1679911 L175.255346,54.1679911 Z M177.34948,71.9980389 C176.921732,71.9252231 176.477036,71.8720631 176.01762,71.8390056 C176.198264,71.5347873 176.366419,71.2493315 176.518517,70.9893388 C176.787922,71.3252743 177.065356,71.6621033 177.34948,71.9980389 L177.34948,71.9980389 Z M167.439479,62.1612025 C167.73074,62.2478667 168.029583,62.3492728 168.346268,62.4672076 C167.578196,64.1754756 166.783362,65.72203 165.975147,67.0800674 C164.83419,64.9228429 163.899747,62.7504298 163.187429,60.5999062 C164.354702,61.1408875 165.779337,61.6644467 167.439479,62.1612025 L167.439479,62.1612025 Z M175.404768,68.4591007 C175.380682,68.5015394 173.258895,72.2276544 171.474756,74.9222865 C171.229436,73.5682696 170.771805,71.9596207 170.107659,70.1218031 C169.664746,68.898676 169.404262,67.7385368 169.331558,66.6753365 C169.290523,66.0619861 169.419873,65.4258528 169.706228,64.835732 C170.732554,62.7204994 171.453792,60.8773211 171.775383,60.0169329 C172.105449,60.821034 172.533642,61.6403236 173.054165,62.464974 C174.17728,64.2438242 174.990402,65.7993131 175.472119,67.0898953 C175.642505,67.5451059 175.615743,68.0472223 175.404768,68.4591007 L175.404768,68.4591007 Z M153.515165,83.5431434 C153.395182,83.9836121 153.29304,84.4468637 153.208739,84.9293243 C152.871091,84.7582295 152.531658,84.581774 152.193118,84.4026381 C152.6338,84.1279036 153.075375,83.8411075 153.515165,83.5431434 L153.515165,83.5431434 Z M140.881676,87.7079402 C140.543135,87.464923 140.34465,87.3175045 140.319226,87.2982954 C139.084601,86.3373946 137.869603,85.3072518 136.696531,84.2279695 C138.070764,84.1712357 139.721539,83.9420669 141.615849,83.5431434 C143.102483,83.229544 144.459321,83.1513675 145.647111,83.3077205 C146.076643,83.3644543 146.491455,83.5288483 146.880843,83.7955418 C147.722511,84.3731544 148.559718,84.9114554 149.375962,85.3983833 C149.376408,85.39883 149.376854,85.3992767 149.377746,85.3992767 C149.513341,85.4787934 150.496401,86.0505986 151.90944,86.7769699 C151.115498,86.9748681 150.297024,87.2540698 149.463385,87.6114481 C148.550352,88.0027773 147.688166,88.3373727 146.900023,88.6058531 C144.875471,89.2960398 142.625226,88.9596576 140.881676,87.7079402 L140.881676,87.7079402 Z M173.939544,30.676625 C174.037225,32.0891625 173.949803,33.3645562 173.680398,34.4684083 C173.582716,34.8704588 173.39895,35.2398986 173.133113,35.564666 C171.819094,37.1737616 170.817746,38.881583 170.14914,40.6532857 C169.924339,40.0117917 169.645121,39.3560026 169.312825,38.6935127 C168.522451,37.1147942 167.928779,35.7004698 167.547865,34.4907444 C167.192376,33.3609824 167.433234,32.143216 168.191047,31.2323482 C169.907835,29.1689355 171.757988,27.4990856 171.776275,27.4825568 C172.4596,26.8727802 173.17281,26.2907004 173.938652,25.7188951 C173.807071,27.0840801 173.807071,28.745889 173.939544,30.676625 L173.939544,30.676625 Z M132.843683,92.5186983 C133.652344,91.5600311 134.494011,90.776926 135.345046,90.1917191 C135.750937,89.9125173 136.254957,89.7396356 136.802687,89.6931764 C137.666657,89.6190204 138.528396,89.5100201 139.36828,89.3688557 C139.831264,89.7043445 140.758124,90.3650476 141.959296,91.1664683 C141.286229,92.7411662 140.614055,94.0415763 139.959276,95.0350879 C139.47845,95.7654797 138.703688,96.2354321 137.834812,96.3234365 C134.866004,96.624081 132.014058,96.569134 129.24329,96.2063951 C130.324924,95.3093757 131.531894,94.0737404 132.843683,92.5186983 L132.843683,92.5186983 Z M131.481492,91.3652599 C130.367298,92.6857726 129.323576,93.771309 128.379321,94.5910454 C127.45246,95.3946998 126.202225,95.6931106 125.034952,95.3915727 C120.975143,94.3364134 117.194998,92.540141 113.783724,90.0460875 C115.073211,89.7597381 116.576348,89.2848718 118.267266,88.628636 C120.026427,87.9447033 121.62234,87.6516532 123.020659,87.7575265 C123.222266,87.772715 123.422982,87.8200677 123.633956,87.9040515 C126.534521,89.0485554 129.673713,89.684242 132.980169,89.798603 C132.468121,90.2654284 131.966778,90.7894342 131.481492,91.3652599 L131.481492,91.3652599 Z M108.915701,80.0140331 C110.405903,80.0216274 111.72795,80.2230994 112.844375,80.6130884 C113.217706,80.7439782 113.558031,80.9664462 113.855982,81.2746849 C115.761888,83.2487531 117.865389,84.9043078 120.122771,86.2082917 C119.314109,86.3780464 118.477348,86.6299981 117.6223,86.9619131 C116.475544,87.4072958 115.408183,87.7678011 114.449208,88.0336012 C112.907712,88.4611149 111.229729,88.0340479 110.072715,86.9176876 C108.782336,85.6735645 107.548158,84.3003386 106.403633,82.8377681 C105.621288,81.8380024 104.867043,80.7779292 104.153833,79.6767574 C105.472758,79.8907376 107.06867,80.0042052 108.915701,80.0140331 L108.915701,80.0140331 Z M190.738106,93.6703497 C190.420529,93.8262559 190.100276,93.9785884 189.778685,94.1277938 C189.867446,93.8749487 189.954423,93.6082552 190.039169,93.3299469 C190.274676,93.447435 190.507952,93.5609026 190.738106,93.6703497 L190.738106,93.6703497 Z M242.097228,69.0621765 L233.866102,65.6192838 C233.300529,65.3834141 232.647981,65.6496609 232.408014,66.2161055 C232.320591,66.4229381 223.510512,86.9136671 208.33507,86.9136671 C207.189653,86.9136671 205.987143,86.812261 204.749397,86.6121292 C206.183399,85.2728542 207.573689,83.8397674 208.892168,82.3432459 C213.337351,77.2957248 217.002418,71.4619715 219.501105,65.4602505 C219.628225,65.3776067 219.710296,65.2324218 219.704497,65.0702614 C219.704051,65.0514991 219.702267,65.0206752 219.698253,64.9786833 C221.748228,59.9199941 222.831201,55.0140841 222.831201,50.7845125 C222.831201,32.4304588 209.065229,17.2753872 192.1449,17.0019928 C186.94012,16.9260499 178.35172,19.0095651 171.049684,25.158258 C165.148644,19.9700192 157.464803,17.0010994 149.904513,17.0010994 C149.294784,17.0010994 148.652494,17.0252224 147.896911,17.0761488 C147.870149,17.064534 147.842048,17.0551528 147.813056,17.0488987 C147.699763,17.0243289 147.580226,17.0444315 147.481206,17.1060792 C139.770157,17.7154091 132.221464,21.2521137 126.75397,26.8218538 C120.597798,33.0938421 117.343974,41.3801037 117.343974,50.7845125 C117.343974,60.1009168 122.086216,71.2158272 130.029203,80.5165963 C132.163034,83.015117 134.489997,85.3398626 136.956123,87.4372262 C136.948095,87.4394598 136.93962,87.4416934 136.931592,87.443927 C135.976185,87.5368454 135.013642,87.5837513 134.070278,87.5837513 C114.112006,87.5837513 108.007128,67.6688481 107.756902,66.8209682 C107.583395,66.2321875 106.963406,65.8917847 106.378655,66.0642197 L97.8067581,68.5386174 C97.5208498,68.6217078 97.2840053,68.8106716 97.1394901,69.0720044 C96.9958669,69.3328906 96.9615222,69.6348752 97.0440386,69.9216712 C97.1296773,70.2178485 99.1970485,77.2501591 104.64804,84.215908 C112.089684,93.7252966 122.263738,98.7518217 134.070278,98.7518217 C139.359805,98.7518217 144.616325,97.7149781 149.697553,95.6694343 C156.594143,98.9005804 163.790914,100.538713 171.091166,100.538713 C172.956483,100.538713 174.840534,100.423905 176.692917,100.19697 C176.797735,100.22422 176.911474,100.212605 177.01317,100.157212 C182.658186,99.425033 188.167607,97.6278671 193.395581,94.8144068 C198.531226,96.9528689 203.69274,98.0817375 208.33507,98.0817375 C230.968214,98.0817375 242.228362,71.6473615 242.696698,70.5225134 C242.933097,69.9538353 242.664138,69.2989396 242.097228,69.0621765 L242.097228,69.0621765 Z" id="Fill-1"></path>
                <path d="M5.02388913,94.219059 C6.0259075,92.0184551 8.74762659,91.2564139 10.749636,92.6023303 C13.6659808,94.5636828 17.1160258,95.7655393 21.0450326,95.7655393 C29.9167218,95.7655393 35.6080037,90.385437 35.6080037,80.6341606 L35.6080037,5.53619932 C35.6080037,3.37224673 37.3545668,1.6180758 39.5091344,1.6180758 L54.1369807,1.6180758 C56.2915482,1.6180758 58.0381113,3.37224673 58.0381113,5.53619932 L58.0381113,81.3071188 C58.0381113,105.011333 43.6429036,115.771029 23.2208874,115.771029 C15.3836542,115.771029 7.80744244,113.933884 1.53076288,109.217068 C0.07411099,108.122111 -0.400289209,106.135815 0.356419655,104.47429 L5.02388913,94.219059 Z" id="Fill-3"></path>
                <path d="M270.430345,88.6741609 C271.712645,86.6644492 274.453117,86.2928459 276.263035,87.8398353 C282.356746,93.0478802 290.654695,96.5933824 299.776255,96.5933824 C309.819753,96.5933824 315.176015,91.044786 315.176015,84.1512913 C315.176015,75.5769283 307.141622,71.8792215 296.930868,67.5085565 C282.869666,61.9604691 265.294051,55.2354685 265.294051,33.0431192 C265.294051,15.391456 279.020233,0.428571429 302.119873,0.428571429 C314.330103,0.428571429 325.047696,3.97356457 333.292933,10.5728309 C334.84183,11.8123568 335.185466,14.0414672 334.117558,15.7167361 L327.601144,25.943461 C326.381693,27.8569632 323.810504,28.3100137 321.991464,26.9595159 C315.89015,22.4300287 308.694066,20.2665852 301.617597,20.2665852 C293.248184,20.2665852 288.225928,24.9737293 288.225928,31.6987299 C288.225928,39.2641647 295.927329,42.7943955 305.97032,46.9970755 C320.365021,52.7136569 337.94165,60.1105976 337.94165,82.3024379 C337.94165,101.972976 324.549474,116.430378 300.111782,116.430378 C284.721651,116.430378 273.076546,111.833188 264.419756,104.288624 C262.961076,103.017028 262.656467,100.859184 263.698525,99.2261659 L270.430345,88.6741609 Z" id="Fill-5"></path>
            </g>
        </g>
    </g>
</svg>