<?xml version="1.0" encoding="UTF-8" standalone="no"?>
<svg width="53px" height="30px" viewBox="0 0 53 30" version="1.1" xmlns="http://www.w3.org/2000/svg" xmlns:xlink="http://www.w3.org/1999/xlink">
    <!-- Generator: Sketch 42 (36781) - http://www.bohemiancoding.com/sketch -->
    <title>Fill 1</title>
    <desc>Created with Sketch.</desc>
    <defs></defs>
    <g id="Page-1" stroke="none" stroke-width="1" fill="none" fill-rule="evenodd">
        <g id="Desktop-HD" transform="translate(-30.000000, -20.000000)" fill="#282832">
            <path d="M81.4195799,39.2781664 C81.2153533,39.71757 80.795207,40.5641319 80.1687518,41.5579637 C80.0587097,41.0766892 79.8688991,40.5087853 79.6022031,39.8630753 C79.3825994,39.3303044 79.2616652,38.8182283 79.2491713,38.3704826 L81.4195799,39.2781664 Z M77.1699039,45.2393929 C77.1662198,44.7669418 77.1136815,44.2078612 77.0129297,43.5717767 C76.9139398,42.9456386 76.924031,42.3923333 77.0427227,41.9272617 C77.0718751,41.8123975 77.1250541,41.7041108 77.200658,41.6051286 C77.8586682,40.7422034 78.3713972,39.9009356 78.7282733,39.2558673 C78.7953877,39.5305146 78.8897324,39.81575 79.0103463,40.108044 C79.3846817,41.0146048 79.5341276,41.6117061 79.5933933,41.9529297 C79.6355201,42.1956525 79.574172,42.4532948 79.4248863,42.6599219 C78.7212254,43.6338611 77.963905,44.5001553 77.1699039,45.2393929 L77.1699039,45.2393929 Z M32.2390822,39.306722 C31.8834876,39.2229802 31.5395859,39.1419657 31.256712,39.0639992 L33.221132,38.4970578 C33.3260484,38.7880685 33.5017634,39.2343704 33.7617319,39.76666 C33.4424977,39.6259674 33.0880243,39.5086968 32.7023163,39.4162921 C32.5429394,39.3782714 32.3880475,39.3416946 32.2390822,39.306722 L32.2390822,39.306722 Z M32.5533509,40.0405052 C33.4754943,40.2614102 34.010488,40.5912437 34.2972062,40.8288328 C34.3518268,40.8740726 34.3982783,40.9282962 34.439444,40.9945517 C34.6689787,41.3646518 34.9146914,41.7209554 35.172898,42.0576871 C34.8929072,42.0126077 34.5949766,41.9890253 34.28263,41.9875814 C33.5893807,41.9838917 33.0005672,41.937208 32.5325278,41.8484931 C32.265031,41.7977989 32.0358166,41.6285507 31.9039903,41.3847049 C31.5456727,40.7213482 31.2847431,40.1308244 31.108067,39.6888539 C31.3975083,39.7681038 31.7380462,39.8481558 32.0925195,39.9314163 L32.1506641,39.9450524 C32.2808886,39.975854 32.4154379,40.0074577 32.5533509,40.0405052 L32.5533509,40.0405052 Z M72.0666406,48.0805168 C72.2963355,47.6388672 72.5210649,47.0756156 72.7369845,46.4007083 C72.8970021,45.9008245 73.1029906,45.4763404 73.3491839,45.1384857 C73.4219046,45.0387014 73.515128,44.9557618 73.6264516,44.8917523 C74.5529197,44.3589814 75.4526382,43.6163748 76.3054245,42.6809376 C76.300459,42.9932848 76.3254467,43.3250433 76.3803877,43.6720422 C76.4599961,44.1757762 76.5078892,44.6312224 76.5227857,45.025707 C76.5413664,45.5196551 76.3116715,45.9903416 75.9081837,46.2845607 C74.6897115,47.1731539 73.3991593,47.7763513 72.0666406,48.0805168 L72.0666406,48.0805168 Z M68.1392422,46.7929471 C68.5446521,46.4266971 68.9515036,46.1565417 69.348424,45.990502 C69.4927442,45.929701 69.6530821,45.8993807 69.8139006,45.9061185 C69.8702832,45.9078832 69.9263454,45.9091666 69.9820872,45.9091666 C70.8039593,45.9091666 71.621026,45.7591694 72.41759,45.4628647 C72.3088293,45.6919514 72.2116014,45.9401286 72.1268674,46.2051504 C71.9463471,46.7688833 71.7578178,47.2536872 71.5660851,47.6454446 C71.3834824,48.0192345 71.0113895,48.2683743 70.5954079,48.2954861 C70.3931034,48.3088014 70.1867944,48.3155392 69.9820872,48.3155392 C68.979855,48.3155392 67.911149,48.1600875 66.8004765,47.8533552 C67.2007607,47.5909002 67.6495788,47.2355592 68.1392422,46.7929471 L68.1392422,46.7929471 Z M64.5169824,45.5955361 C64.9611553,45.3778396 65.3869078,45.2361844 65.7820663,45.1742604 C66.0069559,45.1388065 66.2497853,45.1675226 66.4839652,45.2565584 C66.9888455,45.4485869 67.4202042,45.5733974 67.7527332,45.6250542 C67.9755405,45.6791174 68.1983477,45.7259615 68.4189125,45.7652655 C68.1804078,45.9213589 67.9431846,46.1058475 67.7099658,46.3166457 C67.2095705,46.7688833 66.7540249,47.124866 66.355823,47.3748079 C66.122444,47.5207945 65.8256346,47.5501523 65.5613413,47.4530953 C65.2906409,47.353311 65.0183388,47.2448638 64.7548463,47.1317643 C64.7524437,47.1308018 64.750041,47.1296788 64.7469976,47.1287162 C64.7444348,47.1274328 64.7415516,47.1263099 64.7386684,47.1251869 C64.1974278,46.916795 63.5925965,46.6212925 62.9365085,46.2450962 C63.3936558,46.1036015 63.9232034,45.885905 64.5169824,45.5955361 L64.5169824,45.5955361 Z M60.2781984,47.5004206 C60.5998353,46.783482 60.9539884,46.3612438 61.2202038,46.1210878 C61.5617028,46.3520996 62.1458711,46.7307022 62.833354,47.1081819 C62.8118902,47.1821377 62.7907467,47.2516017 62.7697634,47.3168946 C62.6206379,47.7819662 62.2579955,48.1549539 61.7997269,48.3147371 C61.0597057,48.5728606 60.2996622,48.776921 59.5354542,48.9222659 C59.7787642,48.5353212 60.0275202,48.058699 60.2781984,47.5004206 L60.2781984,47.5004206 Z M56.3802727,47.9245839 C56.9726101,47.2052389 57.5044002,46.893373 57.8462195,46.7584557 C57.9058057,46.7348733 57.9729201,46.7189912 58.0451603,46.71097 C58.7827789,46.6305971 59.5152718,46.4881399 60.229184,46.2866463 C60.0316848,46.5654646 59.8524459,46.8834267 59.6937098,47.2371634 C59.5660481,47.5215967 59.4374254,47.7866185 59.3112053,48.024689 C58.9600957,48.6864414 58.2847862,49.1248825 57.5487694,49.1693202 C56.7876047,49.2153621 56.0243577,49.2050949 55.2434912,49.1406041 C55.5926787,48.8256902 55.9737416,48.4183715 56.3802727,47.9245839 L56.3802727,47.9245839 Z M52.4613637,47.3449689 C52.9937946,46.9562595 53.5084457,46.7090449 53.9909011,46.6100627 C54.1012636,46.5874428 54.2153102,46.5853573 54.3296771,46.604127 C55.0882789,46.7276541 55.8491233,46.7905407 56.5912268,46.7915032 C56.3496788,46.9971679 56.1138971,47.2395698 55.8859642,47.5161422 C55.547028,47.9279528 55.2239495,48.2786415 54.926179,48.5592245 C54.5901261,48.875101 54.1225672,49.0165957 53.6756713,48.9365437 C52.7934122,48.779167 51.9098717,48.5476739 51.0436304,48.2473586 C51.4634563,48.0290204 51.9385435,47.72678 52.4613637,47.3449689 L52.4613637,47.3449689 Z M49.0925052,45.9473477 C49.6127625,45.7243572 50.100664,45.5993863 50.5424342,45.5766059 C50.6933217,45.5677826 50.8472525,45.5976216 50.9994214,45.6622728 C51.5241637,45.8855842 51.9986102,46.0533886 52.4041803,46.1597502 C52.5768519,46.2122091 52.7528872,46.26162 52.9308447,46.308464 C52.650854,46.446269 52.3674996,46.6195278 52.0839849,46.8264758 C51.6982769,47.1081819 51.3362752,47.3460919 51.0083913,47.5341098 C50.5299403,47.8082759 49.9380835,47.8326604 49.4250342,47.5990819 C49.3205983,47.5514357 49.2161624,47.5029874 49.1138088,47.453737 C48.6042834,47.2015491 48.0483064,46.8893624 47.4566097,46.5239146 C47.92545,46.4060023 48.4737385,46.2130113 49.0925052,45.9473477 L49.0925052,45.9473477 Z M46.0255817,48.2823313 C46.2431031,47.935974 46.4684732,47.4976934 46.6903194,46.9893071 C47.1303276,47.2697297 47.5565607,47.5252864 47.9630918,47.7522876 C47.326225,47.974476 46.6770246,48.1520663 46.0255817,48.2823313 L46.0255817,48.2823313 Z M43.411801,41.4212818 C44.0710927,41.4041163 44.6360396,41.4971627 45.0899834,41.6936831 C45.1973025,41.7400459 45.2958118,41.8072639 45.3827883,41.8934121 C45.8284028,42.3350616 46.2990051,42.7560164 46.7865862,43.1488969 C46.499868,43.1634955 46.2000152,43.2036017 45.8903916,43.2687342 C45.3430642,43.3839192 44.8527601,43.4577147 44.4330944,43.488035 C43.9115556,43.5252535 43.409078,43.3272893 43.0534834,42.9440343 C42.8550232,42.7300276 42.6586452,42.5094434 42.4697957,42.288378 C42.2103077,41.9843729 41.9565861,41.6697798 41.7127956,41.3495719 C42.1849996,41.4118167 42.7544315,41.4355596 43.411801,41.4212818 L43.411801,41.4212818 Z M40.9743761,37.9461589 C42.3748102,38.2216084 42.8660754,38.8151803 42.9833255,38.990685 L43.1164333,38.9013284 L42.992776,39.0049629 L43.0028672,39.0210053 C43.0092743,39.0338393 43.0172832,39.0455503 43.0267337,39.0559779 C43.4215719,39.6392827 43.8484456,40.2004487 44.2958221,40.7243963 C44.3286585,40.7628982 44.3618153,40.8012398 44.3951323,40.8392605 C44.1289169,40.798673 43.8450819,40.7781386 43.5463504,40.7781386 C43.4970156,40.7781386 43.4472003,40.7786199 43.3972249,40.7795824 C42.8590276,40.7917747 42.3799359,40.7762135 41.9730844,40.7330592 C41.4723688,40.680119 41.0315596,40.4115678 40.7639025,39.9962279 C40.2458877,39.1924995 39.7938661,38.3682367 39.417128,37.5414071 C39.8497681,37.6917251 40.3716272,37.827605 40.9743761,37.9461589 L40.9743761,37.9461589 Z M39.6956771,34.4634961 C40.7014332,34.951348 41.1182157,35.4961508 41.2771121,35.777536 C41.2907272,35.8014393 41.3014591,35.8261447 41.3118707,35.8519731 L41.3924401,36.0446433 L41.3945224,36.0497769 C41.6136455,36.5793393 41.8673671,37.1080996 42.1513623,37.6267531 C41.83389,37.4958464 41.4814989,37.3918911 41.0978732,37.316331 C40.5984389,37.218151 40.1539457,37.1061745 39.7765669,36.9837703 C39.3301515,36.8387463 38.9743967,36.4928703 38.8247906,36.0582794 C38.5387132,35.22776 38.3360883,34.4118393 38.2209205,33.6267201 C38.6125551,33.8973568 39.1067035,34.1779399 39.6956771,34.4634961 L39.6956771,34.4634961 Z M40.51835,32.4267424 C40.5438183,33.043255 40.6482542,33.701799 40.8298958,34.3903424 C40.5769751,34.2080998 40.2910578,34.0393328 39.9750271,33.8861271 C39.4384316,33.6257576 38.9827259,33.3685966 38.6208843,33.1215423 C38.2989271,32.9017603 38.1068739,32.5345478 38.1067138,32.1325232 C38.1067138,31.1852145 38.2066647,30.2611675 38.4041638,29.3801142 C38.6819121,29.7943312 39.0698626,30.2630926 39.5620888,30.7785376 C39.9833563,31.2197059 40.2838498,31.6639222 40.4549197,32.0989944 C40.4924013,32.1939659 40.5130642,32.3012901 40.51835,32.4267424 L40.51835,32.4267424 Z M41.0076931,29.1250388 L40.9899134,29.1763747 C40.9799823,29.2047699 40.9702115,29.2333255 40.965246,29.2503306 C40.9457043,29.298458 40.9360936,29.33696 40.931929,29.3571735 C40.766145,29.8955593 40.6484144,30.4482228 40.580499,31.0065013 C40.420962,30.7796605 40.235316,30.5550658 40.0250026,30.3348025 C39.655953,29.948339 39.3456887,29.5852976 39.102699,29.2556246 C38.7799409,28.8178252 38.7064193,28.2504025 38.9061609,27.7378452 C39.2457378,26.8660966 39.6915125,26.0480904 40.2337142,25.3011523 C40.332704,25.7861166 40.510181,26.3605979 40.763422,27.0151313 C41.1899754,28.1175708 41.0981935,28.8141354 41.0076931,29.1250388 L41.0076931,29.1250388 Z M43.2966332,24.239942 C43.2905465,24.6405228 43.2456967,25.0098208 43.1628848,25.3372479 C43.1071429,25.5573508 43.0031876,25.7565984 42.8619108,25.9138148 C42.3861829,26.4435376 41.9730844,27.0348635 41.6299837,27.6765629 C41.5691161,27.3879586 41.4790962,27.0892476 41.360885,26.7833174 C41.1861311,26.3317215 41.0482181,25.9152586 40.95083,25.5453189 C40.8028257,24.9828694 40.9617221,24.3844848 41.3656904,23.983904 C41.9948686,23.3596909 42.7001313,22.8132839 43.4664217,22.3557523 C43.36583,22.8583633 43.3075253,23.5002231 43.2966332,24.239942 L43.2966332,24.239942 Z M46.6693361,22.44928 C46.4771228,22.9196456 46.2469473,23.3168575 45.9850567,23.6298463 C45.8887899,23.7450314 45.7600069,23.8390403 45.6020717,23.909146 C44.9929157,24.1797827 44.4177173,24.529188 43.8868883,24.9504636 C43.9168415,24.7258688 43.9336602,24.4914881 43.9373443,24.2494071 C43.9467947,23.6036971 43.9932463,23.0467021 44.0749369,22.5938227 C44.14974,22.1797662 44.430051,21.8329277 44.8248892,21.6656046 C45.6579737,21.3128304 46.5251761,21.0656157 47.4074352,20.9292546 C47.1631641,21.3370545 46.9156895,21.8465638 46.6693361,22.44928 L46.6693361,22.44928 Z M50.1431111,22.2856466 C49.8599168,22.5716841 49.5701552,22.8075086 49.2823158,22.9865427 C49.0548634,23.127877 48.7960161,23.2096937 48.5334848,23.2231694 C47.9674166,23.2522063 47.4120803,23.3354668 46.8777273,23.4710257 C47.0186838,23.2337574 47.1474667,22.9732275 47.2621539,22.6923236 C47.4458778,22.2429736 47.6321646,21.8447992 47.8157283,21.50903 C48.0537524,21.0734765 48.5068953,20.8028398 48.9988012,20.802519 C49.8171493,20.802519 50.6478312,20.9077577 51.473067,21.1153474 C51.0753456,21.4028287 50.6294107,21.7952279 50.1431111,22.2856466 L50.1431111,22.2856466 Z M53.7323742,23.5303829 C53.4533446,23.6452471 53.1800813,23.7331599 52.9204332,23.791715 C52.535526,23.8785048 52.1241896,23.8485054 51.7304726,23.7047647 C51.1597593,23.4963729 50.5757512,23.3527926 49.9891802,23.27627 C50.1950087,23.1190537 50.3985946,22.9388966 50.5980159,22.7377238 C51.023448,22.3085874 51.4186065,21.957257 51.7725994,21.693679 C52.0742141,21.4689238 52.4732169,21.4130959 52.8135946,21.5476924 C53.72853,21.9091295 54.5894854,22.3900832 55.3777201,22.9791632 C54.9067975,23.0898563 54.3551453,23.2746657 53.7325344,23.5303829 L53.7323742,23.5303829 Z M54.424182,25.287837 C54.0331881,24.9515866 53.6157648,24.6509504 53.177999,24.3905809 C53.4365259,24.3251276 53.7033821,24.2360918 53.9756842,24.1242757 C54.9641412,23.7179196 55.5912371,23.5756227 55.938983,23.527014 C55.5535953,23.9062583 54.9087197,24.5802031 54.424182,25.287837 L54.424182,25.287837 Z M63.5211573,22.2415298 C62.9997787,22.9786819 62.5073922,23.3279268 62.1860757,23.4909184 C62.1590056,23.504715 62.1312949,23.5146613 62.1023027,23.5233242 C61.9677534,23.5634305 61.8301607,23.6080286 61.6936892,23.6558352 C61.6747883,23.6590437 61.6566882,23.6656211 61.6401899,23.6750861 C61.4144994,23.7556194 61.1900904,23.8454573 60.9692053,23.9436373 C61.0747624,23.6973852 61.1662239,23.4309195 61.2423083,23.1468072 C61.4345216,22.4295477 61.6429129,21.8433553 61.8615555,21.404433 C61.9714375,21.1840093 62.1793482,21.0242261 62.4178529,20.9769008 C62.9984972,20.862197 63.5631238,20.8020377 64.0580731,20.8020377 C64.0905892,20.8020377 64.1229451,20.8023586 64.1548205,20.8028398 C64.3239682,20.8055671 64.4980814,20.8139092 64.6810044,20.8278661 C64.3249292,21.1809612 63.9361778,21.6548562 63.5211573,22.2415298 L63.5211573,22.2415298 Z M66.9428745,22.7888993 C66.4791599,23.0544024 66.0329047,23.2295864 65.616923,23.3096384 C65.4838153,23.3353063 65.340296,23.3354668 65.1910104,23.3096384 C64.8322122,23.2485165 64.470691,23.2145064 64.1160575,23.2087311 L64.1157371,23.2087311 C64.0942733,23.2084103 64.0726493,23.2082499 64.0508651,23.2082499 C63.8897263,23.2082499 63.7192972,23.2170732 63.5411795,23.2343991 C63.7149724,23.0479855 63.8833192,22.8399144 64.0441376,22.6125924 C64.4138279,22.0897679 64.7641367,21.6595085 65.0848125,21.3336856 C65.3481448,21.0667387 65.7160731,20.9544413 66.071027,21.0336912 C66.9510436,21.230372 67.8022282,21.551703 68.6064807,21.9906253 C68.1317138,22.160034 67.574135,22.4274622 66.9428745,22.7888993 L66.9428745,22.7888993 Z M69.943164,24.8038353 C69.5600189,24.8521232 69.2002596,24.8604653 68.8741377,24.8283803 C68.6540535,24.806723 68.4469436,24.7303607 68.2749127,24.6074753 C67.7395987,24.2250225 67.1674437,23.9165255 66.5690196,23.687118 C66.796472,23.5932695 67.0277687,23.4793678 67.2606672,23.3458944 C67.8326619,23.0186277 68.343629,22.7717339 68.779793,22.6122716 C69.1259371,22.4853755 69.5063593,22.5373532 69.796281,22.7518412 C70.5484758,23.3081945 71.2290711,23.9651343 71.8233306,24.7083825 C71.3142856,24.6788644 70.6839862,24.7106285 69.943164,24.8038353 L69.943164,24.8038353 Z M72.0684025,27.8525489 C71.6256712,27.7437809 71.235318,27.5949066 70.908235,27.4102577 C70.7687202,27.3314891 70.6513099,27.2164645 70.5592077,27.0685528 C70.1996086,26.4897399 69.7805836,25.9601775 69.3103017,25.4896515 C69.5379143,25.4880472 69.7773801,25.4715235 70.0232529,25.4405615 C70.6863888,25.3569801 71.258704,25.3256973 71.7267434,25.3479964 C72.1089275,25.3659639 72.455392,25.5709869 72.6535319,25.8960076 C73.1337448,26.6833727 73.5202537,27.528972 73.8053701,28.4140359 C73.3472617,28.2122214 72.7650156,28.0240431 72.0684025,27.8525489 L72.0684025,27.8525489 Z M72.0017686,30.720945 C71.9045407,30.592926 71.837266,30.4353888 71.8017066,30.2528254 C71.6666767,29.5575441 71.4571642,28.8839202 71.177654,28.2444668 C71.40831,28.3343047 71.6553041,28.4117899 71.9157531,28.4757994 C72.5223463,28.6249945 73.0405213,28.7892696 73.4557021,28.9639722 C73.8268339,29.1200656 74.0935299,29.4487761 74.1689736,29.8431003 C74.3136141,30.5958137 74.3869755,31.3661737 74.3869755,32.1325232 C74.3869755,32.3263164 74.3800879,32.5265266 74.3663126,32.7307474 C74.017926,32.3980263 73.5660645,32.0388351 73.0177761,31.6592699 C72.593305,31.3656925 72.2516459,31.049816 72.0017686,30.720945 L72.0017686,30.720945 Z M71.9344939,32.9288721 C71.9674905,32.6466848 71.9843092,32.3787753 71.9843092,32.1325232 C71.9843092,31.9701733 71.9799844,31.8050961 71.9716552,31.638896 C72.1739597,31.8298015 72.402213,32.0133275 72.6535319,32.1872281 C73.0542966,32.464763 73.404285,32.7337955 73.6934059,32.9867855 C74.0725466,33.318544 74.2420147,33.8331869 74.1358168,34.3298622 C74.0110383,34.9136482 73.8399685,35.5174873 73.6261312,36.1290268 C73.4004407,35.7278043 73.0969039,35.2776522 72.720326,34.78595 L72.7201658,34.78595 C72.3226046,34.2666548 72.0640777,33.7609957 71.9521135,33.2830901 C71.9258443,33.1715949 71.9199177,33.0523992 71.9344939,32.9288721 L71.9344939,32.9288721 Z M70.9995364,36.2636232 C71.2782456,35.6017103 71.5013733,34.9515085 71.6653953,34.3242473 C71.811157,34.6065951 71.9939199,34.8918304 72.2122421,35.1765845 C72.5487756,35.6161486 72.8249221,36.0228255 73.0328328,36.3855461 C73.2242452,36.7192298 73.245709,37.1283131 73.0901764,37.4794831 C72.7605306,38.2240147 72.3749827,38.967263 71.9415417,39.6936667 C71.8077933,39.2398248 71.6026056,38.7158773 71.3291822,38.1304871 C71.1023705,37.6450415 70.9644574,37.1849431 70.9188068,36.7628653 C70.9015076,36.60228 70.9295387,36.4296629 70.9995364,36.2636232 L70.9995364,36.2636232 Z M69.2672139,39.729281 C69.2910804,39.5000339 69.3746932,39.2695034 69.508762,39.0630366 C69.8379273,38.5551316 70.1414641,38.0340717 70.4140867,37.5088408 C70.4949764,37.799691 70.6067805,38.0985625 70.7485378,38.4024072 C71.0182771,38.9802574 71.218179,39.4952212 71.3421566,39.9328601 C71.4328172,40.2532285 71.3741921,40.5983023 71.1810177,40.8795271 C70.7166624,41.5555574 70.2151459,42.2051175 69.6888018,42.8123255 C69.6444325,42.349179 69.5472046,41.8079056 69.397919,41.1970078 C69.2659325,40.6576595 69.2220438,40.1638719 69.2672139,39.729281 L69.2672139,39.729281 Z M67.715572,44.8025561 C67.339795,44.7213811 66.8576599,44.5555018 66.2797386,44.308608 C66.2762147,43.7605968 66.3484548,43.2786805 66.4948573,42.8745704 C66.5717426,42.6631304 66.6960406,42.4720645 66.8648679,42.3069873 C67.1849031,41.9935172 67.4927647,41.6691381 67.7798033,41.3431549 C68.0665215,41.0178133 68.3466724,40.6769105 68.6160913,40.3257405 C68.6349923,40.6499591 68.6881713,40.9926266 68.7754682,41.3495719 C68.9028095,41.8714339 68.9909073,42.342762 69.0367181,42.750562 C69.0876547,43.2032809 68.9350053,43.6436471 68.6176931,43.9587214 C68.3266501,44.247807 68.0234336,44.5314381 67.715572,44.8025561 L67.715572,44.8025561 Z M61.4449332,45.302119 L61.3640434,45.2451682 L61.3637231,45.2450078 C61.3619611,45.2437244 61.3601992,45.242441 61.358277,45.241318 C61.3579567,45.2409972 61.3574761,45.2406763 61.3571558,45.2405159 C60.6640666,44.7622895 59.9845926,44.2311228 59.3328293,43.6584061 C59.7848509,43.6136476 60.3097534,43.5197991 60.8992076,43.3781439 C61.7867525,43.1642976 62.390943,43.2295905 62.7415721,43.3219953 C62.8086866,43.339642 62.8745197,43.3701227 62.9373093,43.4124749 C63.3524901,43.6919349 63.7780824,43.9539087 64.2023933,44.1914979 L64.2033543,44.1919792 C64.2038349,44.1923 64.2041552,44.1926209 64.2047959,44.1927813 C64.2538103,44.2198931 64.6199767,44.4202637 65.1298225,44.6663554 C64.8386193,44.7523431 64.5392471,44.8702554 64.2355501,45.0189692 C63.8136418,45.2252755 63.4213665,45.3945237 63.0692958,45.5219011 C62.5293366,45.7171381 61.9219425,45.6353214 61.4449332,45.302119 L61.4449332,45.302119 Z M60.6235417,22.9804466 C60.4723339,23.5448212 60.2600983,24.016791 59.993082,24.3835222 C59.9408641,24.4552321 59.8715071,24.5181187 59.7867731,24.5704172 C59.2693989,24.8903043 58.786463,25.2544687 58.3515804,25.6524827 C58.3373245,25.663552 58.3092934,25.6856906 58.2695694,25.7187382 C58.2900721,25.4489036 58.2900721,25.1641495 58.2697295,24.8673635 C58.234971,24.3621857 58.2271222,23.9064188 58.2466639,23.5128966 C58.2735738,22.9676126 58.5870417,22.466285 59.0645316,22.2049529 C59.7489711,21.8302005 60.467048,21.5229869 61.204186,21.2895688 C60.9993187,21.7385979 60.8045425,22.3053789 60.6235417,22.9804466 L60.6235417,22.9804466 Z M65.1549704,43.7836979 C65.3423784,43.6412407 65.529466,43.4928477 65.7149518,43.339642 C65.6784313,43.5549321 65.6553657,43.7832167 65.6459152,44.0228914 C65.4639533,43.9369037 65.2970481,43.8549266 65.1549704,43.7836979 L65.1549704,43.7836979 Z M52.3625341,32.1325232 C52.3625341,34.2356928 53.023908,36.5230302 54.2756972,38.7532563 C53.8302428,39.4129232 53.3388175,40.0438741 52.8140752,40.6297456 C52.0237581,41.5122427 50.7282404,42.7640377 49.0183429,43.7524151 C47.5008188,42.8168174 46.1170432,41.6229358 44.9044975,40.2030155 C42.6874772,37.6068604 41.3102689,34.5145112 41.3102689,32.1325232 C41.3102689,28.1405115 44.1861003,24.0110158 48.9988012,24.0110158 C50.7716486,24.0110158 52.5851811,24.7253876 53.9949056,25.9747762 C52.9114632,27.801213 52.3625341,29.8721372 52.3625341,32.1325232 L52.3625341,32.1325232 Z M55.8218931,29.9048639 C55.6522648,30.6126583 55.5660892,31.3621631 55.5660892,32.1325232 C55.5660892,32.1840196 55.5667299,32.2361576 55.5678511,32.2894187 C55.3743564,32.0803851 55.1534713,31.8772873 54.9069577,31.6823711 C54.3778906,31.2638227 53.9510169,30.8735091 53.6385101,30.5220182 C53.4334825,30.2918086 53.3489087,29.9730444 53.4123391,29.6691998 C53.657411,28.4955317 54.087168,27.3877982 54.6908779,26.3721485 C54.8337565,26.855669 55.0701788,27.4274231 55.3961406,28.0781063 C55.6458577,28.5768671 55.7985071,29.0502808 55.8499242,29.4851925 C55.8657818,29.619789 55.8563313,29.7611232 55.8218931,29.9048639 L55.8218931,29.9048639 Z M58.5021475,26.589845 C59.041466,27.5817518 59.4284554,28.6500208 59.6554273,29.7728343 C59.2344802,29.5280259 58.7014086,29.2816134 58.0650224,29.0380885 C57.7095879,28.9020482 57.3895528,28.7396983 57.1118045,28.5544076 C57.5136905,27.6340503 58.1383838,26.942138 58.5021475,26.589845 L58.5021475,26.589845 Z M64.3741038,43.3664329 C63.2510976,42.7157498 62.1673349,41.9145881 61.1511672,40.9839637 C60.3422695,40.243603 59.6116988,39.4519065 58.9780356,38.6298896 C59.552433,37.4761141 59.990359,36.3181677 60.2804409,35.1860496 C60.3067101,35.1518791 60.3192039,35.1074414 60.3118357,35.0622016 C60.5639555,34.0414184 60.6917774,33.056089 60.6917774,32.1325232 C60.6917774,29.9748091 60.1478137,27.8729229 59.1180309,26.0447214 C60.7971743,24.6154965 62.8623462,23.9819789 64.1029229,24.0108553 L64.1032432,24.0108553 C65.212314,24.0288229 66.2771757,24.3315446 67.2741221,24.914368 C67.3820819,24.990249 67.4615301,25.0403015 67.6869002,25.174898 C68.3753442,25.645424 68.986102,26.2369104 69.502515,26.9336355 C69.5029956,26.9354001 69.5036363,26.936844 69.504277,26.9384482 C69.5124461,26.9573783 69.5886907,27.1272682 69.7940386,27.3533068 C70.7030473,28.7547782 71.1834204,30.4071541 71.1834204,32.1325232 C71.1834204,34.1899718 69.9452464,37.6718324 67.1791367,40.8126299 C66.5925657,41.4785534 65.6342222,42.4561824 64.3741038,43.3664329 L64.3741038,43.3664329 Z M58.3120165,42.7011511 C57.9293518,42.3199817 57.5620642,41.9264596 57.2189634,41.5300498 C57.4369654,41.2154567 57.6982153,40.8099027 57.9975875,40.3217299 C58.8337154,40.3281469 59.3584577,40.5206567 59.6543061,40.6842901 C59.7156541,40.7181397 59.7729978,40.7627378 59.8300211,40.8206512 C60.0883878,41.0840688 60.3510793,41.3381817 60.6108876,41.5760917 C60.9970762,41.9296681 61.4016852,42.2718543 61.8179872,42.5970354 C61.4804927,42.6117945 61.1228157,42.664093 60.7496016,42.7539309 C60.1575846,42.8965486 59.6328422,42.9876699 59.1899507,43.0252093 C58.8660713,43.0518398 58.5463565,42.9344088 58.3120165,42.7011511 L58.3120165,42.7011511 Z M55.7949832,43.3077174 C56.1158192,42.9496492 56.4292871,42.5744155 56.7288195,42.1905189 C57.1292639,42.6454837 57.5614235,43.0969192 58.0156876,43.5347186 C58.0305841,43.5602261 58.0523683,43.5810814 58.0783171,43.5948779 C58.2010133,43.7124693 58.3240298,43.829419 58.449449,43.9442832 C59.0276907,44.4738456 59.636206,44.976617 60.2617001,45.4416886 C58.0735118,46.1082538 55.7120111,46.1624774 53.3926372,45.5985841 C54.2364536,44.9167786 55.0434292,44.147381 55.7949832,43.3077174 L55.7949832,43.3077174 Z M50.7879867,44.6880128 C50.8632703,44.1494666 51.0056683,43.6903307 51.2113365,43.3218348 C51.2726846,43.2121042 51.3538947,43.1156889 51.4530448,43.0346744 C52.1107346,42.4980533 52.7339863,41.9083316 53.3072625,41.2794662 C53.2882013,41.6187647 53.30502,41.9819666 53.3578786,42.3645798 C53.4461366,43.0032311 53.4848996,43.559424 53.4730464,44.0174369 C53.4650376,44.3248109 53.3255227,44.6132548 53.0902216,44.8088127 C52.8736613,44.9888093 52.6513346,45.1649558 52.4283671,45.3335623 C51.9601675,45.1952761 51.4091561,44.9782213 50.7879867,44.6880128 L50.7879867,44.6880128 Z M56.366978,32.1325232 C56.366978,31.5440849 56.4203172,30.9737746 56.5260345,30.4292927 C56.6331934,30.980352 56.6873335,31.5508227 56.6873335,32.1325232 C56.6873335,32.6060973 56.6341545,33.1117564 56.5287575,33.6426022 C56.4212782,33.123307 56.366978,32.6176479 56.366978,32.1325232 L56.366978,32.1325232 Z M59.8537274,31.1914711 C59.8783947,31.5036578 59.8908886,31.8203365 59.8908886,32.1325232 C59.8908886,32.7504797 59.8293803,33.4002003 59.7079656,34.0686906 C59.4066712,33.7034032 59.0118331,33.3012181 58.5300184,32.8695149 L58.5300184,32.8693545 C58.0956163,32.4803242 57.7704555,32.0787809 57.5638262,31.6757937 C57.5002356,31.5514644 57.4613124,31.4117344 57.4481778,31.2604538 C57.3881112,30.5751189 57.2561247,29.9082328 57.055422,29.2726296 C57.2956886,29.4085094 57.5569385,29.5305927 57.8366089,29.6375961 C58.4066815,29.8557739 58.8915396,30.0778019 59.2777281,30.2975839 C59.6091359,30.4864039 59.824575,30.8205689 59.8537274,31.1914711 L59.8537274,31.1914711 Z M54.2032968,40.2360631 C54.2241199,40.1943526 54.2481466,40.1563319 54.2763379,40.1194342 C54.5614543,39.7490133 54.8311936,39.3699294 55.0769063,38.9953374 C55.1895113,38.8300998 55.3029171,38.6529908 55.4160026,38.465775 C55.4704631,38.734647 55.5491103,39.0123424 55.6514639,39.2954922 C55.8910898,39.9583677 56.0519083,40.5354158 56.129114,41.0107546 C56.185016,41.354545 56.0901908,41.7087631 55.8691455,41.9827687 C55.6508232,42.2537263 55.4252929,42.5193898 55.1989618,42.7720589 C54.853138,43.1583619 54.4903354,43.5334352 54.1171212,43.8911826 C54.1190433,43.4309237 54.0773971,42.8899712 53.9926631,42.2768274 C53.8400137,41.1719816 54.0591369,40.5240256 54.2032968,40.2360631 L54.2032968,40.2360631 Z M55.8760331,35.7387131 C55.7368387,35.6856125 55.6061336,35.6410144 55.4792728,35.6033146 C54.9527686,35.445617 54.4930584,35.2787751 54.1127964,35.1076018 C53.7341362,34.9370702 53.4595915,34.5956862 53.3782212,34.1941428 C53.235663,33.4897173 53.1634228,32.7962008 53.1634228,32.1325232 C53.1634228,31.7600167 53.1804017,31.3844622 53.214039,31.0119557 C53.5424034,31.3708261 53.9766453,31.7643482 54.5098771,32.1859447 C55.2510195,32.772137 55.5742582,33.3050683 55.7147341,33.6531902 C55.8057151,34.1317375 55.9409051,34.6277711 56.1167803,35.1281362 C56.0727314,35.2466902 55.9900797,35.4627824 55.8760331,35.7387131 L55.8760331,35.7387131 Z M58.1026641,33.3475809 C58.5469972,33.7459158 58.9146052,34.119064 59.1950764,34.4569187 C59.4138792,34.7203363 59.4872407,35.0755169 59.3914544,35.4067942 C59.1989207,36.0728781 58.9501646,36.7548441 58.6499915,37.4393769 C58.4605012,37.0104008 58.1938053,36.5228698 57.8537479,35.984484 C57.5673501,35.5306421 57.3722536,35.0905968 57.2740646,34.6768611 C57.2220068,34.4572395 57.222167,34.2235005 57.2745451,33.9822216 C57.3714527,33.535278 57.435684,33.1003662 57.4661177,32.6837429 C57.6496814,32.9104232 57.8625577,33.1326116 58.1026641,33.3475809 L58.1026641,33.3475809 Z M58.8546987,39.7506175 C58.7010882,39.7244683 58.541391,39.7053777 58.3764079,39.6935063 C58.4412799,39.5842569 58.5016669,39.4817455 58.5562875,39.3883782 C58.6530349,39.5090177 58.7526655,39.629978 58.8546987,39.7506175 L58.8546987,39.7506175 Z M55.2958693,36.2180626 C55.4004654,36.249185 55.5077845,36.2856014 55.6215107,36.3279536 C55.3456846,36.9414182 55.0602478,37.4968089 54.7700057,37.9845005 C54.360271,37.2098089 54.0246986,36.4296629 53.7688948,35.6573777 C54.1880799,35.8516522 54.6996877,36.0396701 55.2958693,36.2180626 L55.2958693,36.2180626 Z M58.1563237,38.4797319 C58.1476741,38.4949723 57.3857085,39.8330759 56.7449975,40.8007585 C56.6568997,40.3145108 56.4925573,39.736821 56.2540526,39.0768332 C56.0949961,38.63759 56.0014523,38.2209667 55.9753433,37.8391556 C55.960607,37.6188922 56.0070585,37.3904473 56.1098927,37.1785261 C56.4784617,36.4189145 56.7374691,35.7570016 56.8529573,35.4480233 C56.9714888,35.736788 57.1252595,36.0310072 57.3121869,36.3271514 C57.7155145,36.9659632 58.0075185,37.5245624 58.1805105,37.9880298 C58.2416984,38.1515027 58.2320878,38.3318202 58.1563237,38.4797319 L58.1563237,38.4797319 Z M50.2954401,43.896637 C50.2523523,44.0548159 50.2156716,44.2211765 50.185398,44.3944353 C50.0641434,44.3329926 49.9422482,44.2696248 49.8206732,44.2052944 C49.9789289,44.1066331 50.1375048,44.0036404 50.2954401,43.896637 L50.2954401,43.896637 Z M45.7585653,45.3922778 C45.6369904,45.3050067 45.5657113,45.2520665 45.5565812,45.2451682 C45.1132092,44.9000944 44.676885,44.5301547 44.2556175,44.1425683 C44.7491251,44.1221943 45.341943,44.0398964 46.0222179,43.896637 C46.5560904,43.7840188 47.0433511,43.7559444 47.4699045,43.8120931 C47.6241557,43.8324671 47.773121,43.8915034 47.9129562,43.9872771 C48.2152116,44.1947064 48.5158652,44.3880183 48.8089905,44.5628814 C48.8091507,44.5630418 48.8093109,44.5632022 48.8096312,44.5632022 C48.8583253,44.5917578 49.2113571,44.7971016 49.7188002,45.0579524 C49.4336838,45.1290206 49.1397576,45.2292862 48.8403854,45.357626 C48.5125015,45.4981582 48.2028779,45.6183164 47.9198438,45.7147317 C47.192797,45.9625881 46.3847002,45.8417882 45.7585653,45.3922778 L45.7585653,45.3922778 Z M57.6301397,24.9114804 C57.6652187,25.4187437 57.6338238,25.8767566 57.5370765,26.2731664 C57.5019975,26.4175488 57.4360043,26.5502201 57.3405384,26.666849 C56.8686547,27.2446992 56.5090556,27.8580034 56.2689492,28.4942483 C56.1882196,28.2638782 56.0879483,28.0283746 55.9686159,27.7904645 C55.6847809,27.2235231 55.4715843,26.7156181 55.3347925,26.2811876 C55.2071308,25.8754732 55.2936268,25.4381551 55.5657688,25.1110489 C56.182293,24.3700465 56.8467103,23.7703785 56.8532776,23.7644428 C57.09867,23.5454629 57.3547942,23.3364293 57.6298194,23.1310855 C57.582567,23.6213438 57.582567,24.2181242 57.6301397,24.9114804 L57.6301397,24.9114804 Z M42.872002,47.1198929 C43.1624043,46.7756212 43.4646597,46.4943964 43.7702789,46.2842399 C43.9160406,46.1839744 44.0970415,46.12189 44.2937398,46.1052058 C44.6040041,46.0785753 44.9134675,46.0394316 45.2150822,45.9887373 C45.3813467,46.1092164 45.7141961,46.3464847 46.1455548,46.6342869 C45.9038466,47.1997844 45.6624587,47.6667812 45.4273177,48.023566 C45.2546461,48.2858606 44.9764174,48.4546275 44.6643911,48.4862312 C43.5982479,48.5941971 42.5740714,48.5744649 41.5790472,48.4441999 C41.9674782,48.1220668 42.4009192,47.6783317 42.872002,47.1198929 L42.872002,47.1198929 Z M42.3828191,46.7056759 C41.9826951,47.1798918 41.6078791,47.5697241 41.2687828,47.8641037 C40.9359335,48.152708 40.4869552,48.2598718 40.06777,48.151585 C38.6098321,47.7726615 37.2523256,47.1275933 36.0272861,46.2319414 C36.49036,46.1291091 37.0301591,45.9585775 37.6373929,45.7229134 C38.269134,45.477303 38.84225,45.3720643 39.3444073,45.4100849 C39.4168076,45.4155394 39.4888876,45.4325444 39.5646517,45.4627043 C40.6062876,45.8737127 41.7336187,46.1019973 42.9210164,46.143066 C42.7371323,46.31071 42.5570925,46.4988883 42.3828191,46.7056759 L42.3828191,46.7056759 Z M34.2791061,42.6292808 C34.81426,42.632008 35.2890268,42.7043596 35.6899518,42.8444105 C35.8240205,42.891415 35.9462362,42.9713066 36.0532349,43.0819997 C36.7376745,43.7909171 37.4930728,44.3854515 38.3037324,44.8537316 C38.0133301,44.914693 37.7128366,45.0051727 37.4057759,45.1243683 C36.9939589,45.2843119 36.6106535,45.4137747 36.2662713,45.5092275 C35.712697,45.6627541 35.1101083,45.5093879 34.6946072,45.1084863 C34.2312129,44.6617031 33.7880011,44.1685571 33.376985,43.6433262 C33.0960332,43.2842954 32.8251726,42.9036073 32.5690484,42.50816 C33.042694,42.5850035 33.61581,42.6257515 34.2791061,42.6292808 L34.2791061,42.6292808 Z M63.6627544,47.5334681 C63.5487078,47.5894564 63.4337002,47.6441612 63.318212,47.6977431 C63.3500874,47.6069427 63.3813221,47.5111691 63.4117559,47.4112244 C63.4963297,47.4534161 63.5801027,47.494164 63.6627544,47.5334681 L63.6627544,47.5334681 Z M82.1065823,38.6963055 L79.150662,37.4599112 C78.9475566,37.3752069 78.7132166,37.4708201 78.6270409,37.6742388 C78.5956461,37.7485155 75.431815,45.1070424 69.9820872,45.1070424 C69.5707508,45.1070424 69.1389115,45.070626 68.6944183,44.9987557 C69.2093897,44.517802 69.7086638,44.0031591 70.1821493,43.4657359 C71.7784808,41.6530957 73.0946614,39.5581077 73.9919772,37.4028 C74.0376279,37.3731214 74.0671006,37.3209833 74.0650182,37.2627491 C74.0648581,37.2560113 74.0642174,37.2449419 74.0627758,37.229862 C74.7989527,35.4132111 75.1878643,33.6514256 75.1878643,32.1325232 C75.1878643,25.5413083 70.2442982,20.0988956 64.167955,20.0007156 C62.2988408,19.9734434 59.2146181,20.7216649 56.5923481,22.9297523 C54.4731963,21.0665783 51.7138141,20.0003948 48.9988012,20.0003948 C48.7798382,20.0003948 48.5491822,20.0090577 48.2778411,20.0273462 C48.2682304,20.0231751 48.2581392,20.0198062 48.2477277,20.0175603 C48.2070425,20.0087369 48.1641149,20.015956 48.1285554,20.0380946 C45.3594024,20.2569141 42.648554,21.5269976 40.6850951,23.5271744 C38.4743217,25.7795392 37.305825,28.7552595 37.305825,32.1325232 C37.305825,35.4781832 39.0088349,39.4697136 41.8612804,42.8097587 C42.6275707,43.7070149 43.4632181,44.5418657 44.3488409,45.2950603 C44.3459577,45.2958625 44.3429143,45.2966646 44.3400311,45.2974667 C43.9969304,45.3308351 43.6512668,45.3476797 43.3124908,45.3476797 C36.1451769,45.3476797 33.952824,38.1959404 33.8629643,37.891454 C33.8006551,37.6800141 33.578008,37.5577704 33.368015,37.6196944 L30.2897189,38.5082876 C30.1870449,38.5381266 30.1019906,38.6059863 30.050093,38.6998348 C29.9985157,38.7935229 29.986182,38.9019701 30.0158149,39.0049629 C30.0465691,39.1113245 30.788993,41.6367323 32.7465253,44.1382368 C35.418931,47.5532004 39.0725856,49.3583006 43.3124908,49.3583006 C45.2120388,49.3583006 47.0997337,48.9859546 48.9244787,48.2513693 C51.4011472,49.4117221 53.9856153,50 56.6072446,50 C57.277108,50 57.9536988,49.9587708 58.618917,49.877275 C58.6565588,49.8870609 58.6974041,49.8828899 58.7339247,49.8629972 C60.7611343,49.6000609 62.73965,48.9546718 64.6170935,47.9443161 C66.4613802,48.7122698 68.3149572,49.1176634 69.9820872,49.1176634 C78.1099871,49.1176634 82.1536746,39.624684 82.3218612,39.2207343 C82.4067554,39.0165134 82.3101683,38.7813306 82.1065823,38.6963055 L82.1065823,38.6963055 Z" id="Fill-1"></path>
        </g>
    </g>
</svg>