<?xml version="1.0" encoding="utf-8"?>
<!-- Generator: Adobe Illustrator 21.0.2, SVG Export Plug-In . SVG Version: 6.00 Build 0)  -->
<svg version="1.1" id="Layer_1" xmlns="http://www.w3.org/2000/svg" xmlns:xlink="http://www.w3.org/1999/xlink" x="0px" y="0px"
	 viewBox="0 0 53 30" style="enable-background:new 0 0 53 30;" xml:space="preserve">
<style type="text/css">
	.st0{fill:#FFFFFF;}
</style>
<g id="Desktop-HD" transform="translate(-30.000000, -20.000000)">
	<path id="Fill-1" class="st0" d="M81.4,39.3c-0.2,0.4-0.6,1.3-1.3,2.3c-0.1-0.5-0.3-1-0.6-1.7c-0.2-0.5-0.3-1-0.4-1.5L81.4,39.3z
		 M77.2,45.2c0-0.5-0.1-1-0.2-1.7c-0.1-0.6-0.1-1.2,0-1.6c0-0.1,0.1-0.2,0.2-0.3c0.7-0.9,1.2-1.7,1.5-2.3c0.1,0.3,0.2,0.6,0.3,0.9
		c0.4,0.9,0.5,1.5,0.6,1.8c0,0.2,0,0.5-0.2,0.7C78.7,43.6,78,44.5,77.2,45.2L77.2,45.2z M32.2,39.3c-0.4-0.1-0.7-0.2-1-0.2l2-0.6
		c0.1,0.3,0.3,0.7,0.5,1.3c-0.3-0.1-0.7-0.3-1.1-0.4C32.5,39.4,32.4,39.3,32.2,39.3L32.2,39.3z M32.6,40c0.9,0.2,1.5,0.6,1.7,0.8
		c0.1,0,0.1,0.1,0.1,0.2c0.2,0.4,0.5,0.7,0.7,1.1c-0.3,0-0.6-0.1-0.9-0.1c-0.7,0-1.3-0.1-1.8-0.1c-0.3-0.1-0.5-0.2-0.6-0.5
		c-0.4-0.7-0.6-1.3-0.8-1.7c0.3,0.1,0.6,0.2,1,0.2l0.1,0C32.3,40,32.4,40,32.6,40L32.6,40z M72.1,48.1c0.2-0.4,0.5-1,0.7-1.7
		c0.2-0.5,0.4-0.9,0.6-1.3c0.1-0.1,0.2-0.2,0.3-0.2c0.9-0.5,1.8-1.3,2.7-2.2c0,0.3,0,0.6,0.1,1c0.1,0.5,0.1,1,0.1,1.4
		c0,0.5-0.2,1-0.6,1.3C74.7,47.2,73.4,47.8,72.1,48.1L72.1,48.1z M68.1,46.8c0.4-0.4,0.8-0.6,1.2-0.8c0.1-0.1,0.3-0.1,0.5-0.1
		c0.1,0,0.1,0,0.2,0c0.8,0,1.6-0.1,2.4-0.4c-0.1,0.2-0.2,0.5-0.3,0.7c-0.2,0.6-0.4,1-0.6,1.4c-0.2,0.4-0.6,0.6-1,0.7
		c-0.2,0-0.4,0-0.6,0c-1,0-2.1-0.2-3.2-0.5C67.2,47.6,67.6,47.2,68.1,46.8L68.1,46.8z M64.5,45.6c0.4-0.2,0.9-0.4,1.3-0.4
		c0.2,0,0.5,0,0.7,0.1c0.5,0.2,0.9,0.3,1.3,0.4c0.2,0.1,0.4,0.1,0.7,0.1c-0.2,0.2-0.5,0.3-0.7,0.6c-0.5,0.5-1,0.8-1.4,1.1
		c-0.2,0.1-0.5,0.2-0.8,0.1c-0.3-0.1-0.5-0.2-0.8-0.3c0,0,0,0,0,0c0,0,0,0,0,0c-0.5-0.2-1.1-0.5-1.8-0.9
		C63.4,46.1,63.9,45.9,64.5,45.6L64.5,45.6z M60.3,47.5c0.3-0.7,0.7-1.1,0.9-1.4c0.3,0.2,0.9,0.6,1.6,1c0,0.1,0,0.1-0.1,0.2
		c-0.1,0.5-0.5,0.8-1,1c-0.7,0.3-1.5,0.5-2.3,0.6C59.8,48.5,60,48.1,60.3,47.5L60.3,47.5z M56.4,47.9c0.6-0.7,1.1-1,1.5-1.2
		c0.1,0,0.1,0,0.2,0c0.7-0.1,1.5-0.2,2.2-0.4c-0.2,0.3-0.4,0.6-0.5,1c-0.1,0.3-0.3,0.5-0.4,0.8c-0.4,0.7-1,1.1-1.8,1.1
		c-0.8,0-1.5,0-2.3,0C55.6,48.8,56,48.4,56.4,47.9L56.4,47.9z M52.5,47.3c0.5-0.4,1-0.6,1.5-0.7c0.1,0,0.2,0,0.3,0
		c0.8,0.1,1.5,0.2,2.3,0.2c-0.2,0.2-0.5,0.4-0.7,0.7c-0.3,0.4-0.7,0.8-1,1c-0.3,0.3-0.8,0.5-1.3,0.4c-0.9-0.2-1.8-0.4-2.6-0.7
		C51.5,48,51.9,47.7,52.5,47.3L52.5,47.3z M49.1,45.9c0.5-0.2,1-0.3,1.4-0.4c0.2,0,0.3,0,0.5,0.1c0.5,0.2,1,0.4,1.4,0.5
		c0.2,0.1,0.3,0.1,0.5,0.1c-0.3,0.1-0.6,0.3-0.8,0.5c-0.4,0.3-0.7,0.5-1.1,0.7c-0.5,0.3-1.1,0.3-1.6,0.1c-0.1,0-0.2-0.1-0.3-0.1
		c-0.5-0.3-1.1-0.6-1.7-0.9C47.9,46.4,48.5,46.2,49.1,45.9L49.1,45.9z M46,48.3c0.2-0.3,0.4-0.8,0.7-1.3c0.4,0.3,0.9,0.5,1.3,0.8
		C47.3,48,46.7,48.2,46,48.3L46,48.3z M43.4,41.4c0.7,0,1.2,0.1,1.7,0.3c0.1,0,0.2,0.1,0.3,0.2c0.4,0.4,0.9,0.9,1.4,1.3
		c-0.3,0-0.6,0.1-0.9,0.1c-0.5,0.1-1,0.2-1.5,0.2c-0.5,0-1-0.2-1.4-0.5c-0.2-0.2-0.4-0.4-0.6-0.7c-0.3-0.3-0.5-0.6-0.8-0.9
		C42.2,41.4,42.8,41.4,43.4,41.4L43.4,41.4z M41,37.9c1.4,0.3,1.9,0.9,2,1l0.1-0.1L43,39l0,0c0,0,0,0,0,0c0.4,0.6,0.8,1.1,1.3,1.7
		c0,0,0.1,0.1,0.1,0.1c-0.3,0-0.6-0.1-0.8-0.1c0,0-0.1,0-0.1,0c-0.5,0-1,0-1.4,0c-0.5-0.1-0.9-0.3-1.2-0.7c-0.5-0.8-1-1.6-1.3-2.5
		C39.8,37.7,40.4,37.8,41,37.9L41,37.9z M39.7,34.5c1,0.5,1.4,1,1.6,1.3c0,0,0,0,0,0.1l0.1,0.2l0,0c0.2,0.5,0.5,1.1,0.8,1.6
		c-0.3-0.1-0.7-0.2-1.1-0.3c-0.5-0.1-0.9-0.2-1.3-0.3c-0.4-0.1-0.8-0.5-1-0.9c-0.3-0.8-0.5-1.6-0.6-2.4
		C38.6,33.9,39.1,34.2,39.7,34.5L39.7,34.5z M40.5,32.4c0,0.6,0.1,1.3,0.3,2c-0.3-0.2-0.5-0.4-0.9-0.5c-0.5-0.3-1-0.5-1.4-0.8
		c-0.3-0.2-0.5-0.6-0.5-1c0-0.9,0.1-1.9,0.3-2.8c0.3,0.4,0.7,0.9,1.2,1.4c0.4,0.4,0.7,0.9,0.9,1.3C40.5,32.2,40.5,32.3,40.5,32.4
		L40.5,32.4z M41,29.1L41,29.1c0,0.1,0,0.1,0,0.1c0,0,0,0.1,0,0.1c-0.2,0.5-0.3,1.1-0.4,1.6c-0.2-0.2-0.3-0.5-0.6-0.7
		c-0.4-0.4-0.7-0.7-0.9-1.1c-0.3-0.4-0.4-1-0.2-1.5c0.3-0.9,0.8-1.7,1.3-2.4c0.1,0.5,0.3,1.1,0.5,1.7C41.2,28.1,41.1,28.8,41,29.1
		L41,29.1z M43.3,24.2c0,0.4-0.1,0.8-0.1,1.1c-0.1,0.2-0.2,0.4-0.3,0.6c-0.5,0.5-0.9,1.1-1.2,1.8c-0.1-0.3-0.2-0.6-0.3-0.9
		c-0.2-0.5-0.3-0.9-0.4-1.2c-0.1-0.6,0-1.2,0.4-1.6c0.6-0.6,1.3-1.2,2.1-1.6C43.4,22.9,43.3,23.5,43.3,24.2L43.3,24.2z M46.7,22.4
		c-0.2,0.5-0.4,0.9-0.7,1.2c-0.1,0.1-0.2,0.2-0.4,0.3c-0.6,0.3-1.2,0.6-1.7,1c0-0.2,0-0.5,0.1-0.7c0-0.6,0.1-1.2,0.1-1.7
		c0.1-0.4,0.4-0.8,0.7-0.9c0.8-0.4,1.7-0.6,2.6-0.7C47.2,21.3,46.9,21.8,46.7,22.4L46.7,22.4z M50.1,22.3c-0.3,0.3-0.6,0.5-0.9,0.7
		c-0.2,0.1-0.5,0.2-0.7,0.2c-0.6,0-1.1,0.1-1.7,0.2c0.1-0.2,0.3-0.5,0.4-0.8c0.2-0.4,0.4-0.8,0.6-1.2c0.2-0.4,0.7-0.7,1.2-0.7
		c0.8,0,1.6,0.1,2.5,0.3C51.1,21.4,50.6,21.8,50.1,22.3L50.1,22.3z M53.7,23.5c-0.3,0.1-0.6,0.2-0.8,0.3c-0.4,0.1-0.8,0.1-1.2-0.1
		c-0.6-0.2-1.2-0.4-1.7-0.4c0.2-0.2,0.4-0.3,0.6-0.5c0.4-0.4,0.8-0.8,1.2-1c0.3-0.2,0.7-0.3,1-0.1c0.9,0.4,1.8,0.8,2.6,1.4
		C54.9,23.1,54.4,23.3,53.7,23.5L53.7,23.5z M54.4,25.3c-0.4-0.3-0.8-0.6-1.2-0.9c0.3-0.1,0.5-0.2,0.8-0.3c1-0.4,1.6-0.5,2-0.6
		C55.6,23.9,54.9,24.6,54.4,25.3L54.4,25.3z M63.5,22.2c-0.5,0.7-1,1.1-1.3,1.2c0,0-0.1,0-0.1,0c-0.1,0-0.3,0.1-0.4,0.1
		c0,0,0,0-0.1,0c-0.2,0.1-0.5,0.2-0.7,0.3c0.1-0.2,0.2-0.5,0.3-0.8c0.2-0.7,0.4-1.3,0.6-1.7c0.1-0.2,0.3-0.4,0.6-0.4
		c0.6-0.1,1.1-0.2,1.6-0.2c0,0,0.1,0,0.1,0c0.2,0,0.3,0,0.5,0C64.3,21.2,63.9,21.7,63.5,22.2L63.5,22.2z M66.9,22.8
		c-0.5,0.3-0.9,0.4-1.3,0.5c-0.1,0-0.3,0-0.4,0c-0.4-0.1-0.7-0.1-1.1-0.1h0c0,0,0,0-0.1,0c-0.2,0-0.3,0-0.5,0
		c0.2-0.2,0.3-0.4,0.5-0.6c0.4-0.5,0.7-1,1-1.3c0.3-0.3,0.6-0.4,1-0.3c0.9,0.2,1.7,0.5,2.5,1C68.1,22.2,67.6,22.4,66.9,22.8
		L66.9,22.8z M69.9,24.8c-0.4,0-0.7,0.1-1.1,0c-0.2,0-0.4-0.1-0.6-0.2c-0.5-0.4-1.1-0.7-1.7-0.9c0.2-0.1,0.5-0.2,0.7-0.3
		c0.6-0.3,1.1-0.6,1.5-0.7c0.3-0.1,0.7-0.1,1,0.1c0.8,0.6,1.4,1.2,2,2C71.3,24.7,70.7,24.7,69.9,24.8L69.9,24.8z M72.1,27.9
		c-0.4-0.1-0.8-0.3-1.2-0.4c-0.1-0.1-0.3-0.2-0.3-0.3c-0.4-0.6-0.8-1.1-1.2-1.6c0.2,0,0.5,0,0.7,0c0.7-0.1,1.2-0.1,1.7-0.1
		c0.4,0,0.7,0.2,0.9,0.5c0.5,0.8,0.9,1.6,1.2,2.5C73.3,28.2,72.8,28,72.1,27.9L72.1,27.9z M72,30.7c-0.1-0.1-0.2-0.3-0.2-0.5
		c-0.1-0.7-0.3-1.4-0.6-2c0.2,0.1,0.5,0.2,0.7,0.2c0.6,0.1,1.1,0.3,1.5,0.5c0.4,0.2,0.6,0.5,0.7,0.9c0.1,0.8,0.2,1.5,0.2,2.3
		c0,0.2,0,0.4,0,0.6C74,32.4,73.6,32,73,31.7C72.6,31.4,72.3,31,72,30.7L72,30.7z M71.9,32.9c0-0.3,0-0.6,0-0.8c0-0.2,0-0.3,0-0.5
		c0.2,0.2,0.4,0.4,0.7,0.5c0.4,0.3,0.8,0.5,1,0.8c0.4,0.3,0.5,0.8,0.4,1.3c-0.1,0.6-0.3,1.2-0.5,1.8c-0.2-0.4-0.5-0.9-0.9-1.3h0
		c-0.4-0.5-0.7-1-0.8-1.5C71.9,33.2,71.9,33.1,71.9,32.9L71.9,32.9z M71,36.3c0.3-0.7,0.5-1.3,0.7-1.9c0.1,0.3,0.3,0.6,0.5,0.9
		c0.3,0.4,0.6,0.8,0.8,1.2c0.2,0.3,0.2,0.7,0.1,1.1c-0.3,0.7-0.7,1.5-1.1,2.2c-0.1-0.5-0.3-1-0.6-1.6c-0.2-0.5-0.4-0.9-0.4-1.4
		C70.9,36.6,70.9,36.4,71,36.3L71,36.3z M69.3,39.7c0-0.2,0.1-0.5,0.2-0.7c0.3-0.5,0.6-1,0.9-1.6c0.1,0.3,0.2,0.6,0.3,0.9
		c0.3,0.6,0.5,1.1,0.6,1.5c0.1,0.3,0,0.7-0.2,0.9c-0.5,0.7-1,1.3-1.5,1.9c0-0.5-0.1-1-0.3-1.6C69.3,40.7,69.2,40.2,69.3,39.7
		L69.3,39.7z M67.7,44.8c-0.4-0.1-0.9-0.2-1.4-0.5c0-0.5,0.1-1,0.2-1.4c0.1-0.2,0.2-0.4,0.4-0.6c0.3-0.3,0.6-0.6,0.9-1
		c0.3-0.3,0.6-0.7,0.8-1c0,0.3,0.1,0.7,0.2,1c0.1,0.5,0.2,1,0.3,1.4c0.1,0.5-0.1,0.9-0.4,1.2C68.3,44.2,68,44.5,67.7,44.8
		L67.7,44.8z M61.4,45.3L61.4,45.3L61.4,45.3C61.4,45.2,61.4,45.2,61.4,45.3C61.4,45.2,61.4,45.2,61.4,45.3
		c-0.8-0.5-1.5-1.1-2.1-1.6c0.5,0,1-0.1,1.6-0.3c0.9-0.2,1.5-0.1,1.8-0.1c0.1,0,0.1,0,0.2,0.1c0.4,0.3,0.8,0.5,1.3,0.8l0,0
		c0,0,0,0,0,0c0,0,0.4,0.2,0.9,0.5c-0.3,0.1-0.6,0.2-0.9,0.4c-0.4,0.2-0.8,0.4-1.2,0.5C62.5,45.7,61.9,45.6,61.4,45.3L61.4,45.3z
		 M60.6,23c-0.2,0.6-0.4,1-0.6,1.4c-0.1,0.1-0.1,0.1-0.2,0.2c-0.5,0.3-1,0.7-1.4,1.1c0,0,0,0-0.1,0.1c0-0.3,0-0.6,0-0.9
		c0-0.5,0-1,0-1.4c0-0.5,0.3-1,0.8-1.3c0.7-0.4,1.4-0.7,2.1-0.9C61,21.7,60.8,22.3,60.6,23L60.6,23z M65.2,43.8
		c0.2-0.1,0.4-0.3,0.6-0.4c0,0.2-0.1,0.4-0.1,0.7C65.5,43.9,65.3,43.9,65.2,43.8L65.2,43.8z M52.4,32.1c0,2.1,0.7,4.4,1.9,6.6
		c-0.4,0.7-0.9,1.3-1.5,1.9c-0.8,0.9-2.1,2.1-3.8,3.1c-1.5-0.9-2.9-2.1-4.1-3.5c-2.2-2.6-3.6-5.7-3.6-8.1c0-4,2.9-8.1,7.7-8.1
		c1.8,0,3.6,0.7,5,2C52.9,27.8,52.4,29.9,52.4,32.1L52.4,32.1z M55.8,29.9c-0.2,0.7-0.3,1.5-0.3,2.2c0,0.1,0,0.1,0,0.2
		c-0.2-0.2-0.4-0.4-0.7-0.6c-0.5-0.4-1-0.8-1.3-1.2c-0.2-0.2-0.3-0.5-0.2-0.9c0.2-1.2,0.7-2.3,1.3-3.3c0.1,0.5,0.4,1.1,0.7,1.7
		c0.2,0.5,0.4,1,0.5,1.4C55.9,29.6,55.9,29.8,55.8,29.9L55.8,29.9z M58.5,26.6c0.5,1,0.9,2.1,1.2,3.2c-0.4-0.2-1-0.5-1.6-0.7
		c-0.4-0.1-0.7-0.3-1-0.5C57.5,27.6,58.1,26.9,58.5,26.6L58.5,26.6z M64.4,43.4c-1.1-0.7-2.2-1.5-3.2-2.4c-0.8-0.7-1.5-1.5-2.2-2.4
		c0.6-1.2,1-2.3,1.3-3.4c0,0,0-0.1,0-0.1c0.3-1,0.4-2,0.4-2.9c0-2.2-0.5-4.3-1.6-6.1c1.7-1.4,3.7-2.1,5-2h0c1.1,0,2.2,0.3,3.2,0.9
		c0.1,0.1,0.2,0.1,0.4,0.3c0.7,0.5,1.3,1.1,1.8,1.8c0,0,0,0,0,0c0,0,0.1,0.2,0.3,0.4c0.9,1.4,1.4,3.1,1.4,4.8c0,2.1-1.2,5.5-4,8.7
		C66.6,41.5,65.6,42.5,64.4,43.4L64.4,43.4z M58.3,42.7c-0.4-0.4-0.7-0.8-1.1-1.2c0.2-0.3,0.5-0.7,0.8-1.2c0.8,0,1.4,0.2,1.7,0.4
		c0.1,0,0.1,0.1,0.2,0.1c0.3,0.3,0.5,0.5,0.8,0.8c0.4,0.4,0.8,0.7,1.2,1c-0.3,0-0.7,0.1-1.1,0.2c-0.6,0.1-1.1,0.2-1.6,0.3
		C58.9,43.1,58.5,42.9,58.3,42.7L58.3,42.7z M55.8,43.3c0.3-0.4,0.6-0.7,0.9-1.1c0.4,0.5,0.8,0.9,1.3,1.3c0,0,0,0,0.1,0.1
		c0.1,0.1,0.2,0.2,0.4,0.3c0.6,0.5,1.2,1,1.8,1.5c-2.2,0.7-4.5,0.7-6.9,0.2C54.2,44.9,55,44.1,55.8,43.3L55.8,43.3z M50.8,44.7
		c0.1-0.5,0.2-1,0.4-1.4c0.1-0.1,0.1-0.2,0.2-0.3c0.7-0.5,1.3-1.1,1.9-1.8c0,0.3,0,0.7,0.1,1.1c0.1,0.6,0.1,1.2,0.1,1.7
		c0,0.3-0.1,0.6-0.4,0.8c-0.2,0.2-0.4,0.4-0.7,0.5C52,45.2,51.4,45,50.8,44.7L50.8,44.7z M56.4,32.1c0-0.6,0.1-1.2,0.2-1.7
		c0.1,0.6,0.2,1.1,0.2,1.7c0,0.5-0.1,1-0.2,1.5C56.4,33.1,56.4,32.6,56.4,32.1L56.4,32.1z M59.9,31.2c0,0.3,0,0.6,0,0.9
		c0,0.6-0.1,1.3-0.2,1.9c-0.3-0.4-0.7-0.8-1.2-1.2v0c-0.4-0.4-0.8-0.8-1-1.2c-0.1-0.1-0.1-0.3-0.1-0.4c-0.1-0.7-0.2-1.4-0.4-2
		c0.2,0.1,0.5,0.3,0.8,0.4c0.6,0.2,1.1,0.4,1.4,0.7C59.6,30.5,59.8,30.8,59.9,31.2L59.9,31.2z M54.2,40.2c0,0,0-0.1,0.1-0.1
		c0.3-0.4,0.6-0.7,0.8-1.1c0.1-0.2,0.2-0.3,0.3-0.5c0.1,0.3,0.1,0.5,0.2,0.8c0.2,0.7,0.4,1.2,0.5,1.7c0.1,0.3,0,0.7-0.3,1
		c-0.2,0.3-0.4,0.5-0.7,0.8c-0.3,0.4-0.7,0.8-1.1,1.1c0-0.5,0-1-0.1-1.6C53.8,41.2,54.1,40.5,54.2,40.2L54.2,40.2z M55.9,35.7
		c-0.1-0.1-0.3-0.1-0.4-0.1c-0.5-0.2-1-0.3-1.4-0.5c-0.4-0.2-0.7-0.5-0.7-0.9c-0.1-0.7-0.2-1.4-0.2-2.1c0-0.4,0-0.7,0.1-1.1
		c0.3,0.4,0.8,0.8,1.3,1.2c0.7,0.6,1.1,1.1,1.2,1.5c0.1,0.5,0.2,1,0.4,1.5C56.1,35.2,56,35.5,55.9,35.7L55.9,35.7z M58.1,33.3
		c0.4,0.4,0.8,0.8,1.1,1.1c0.2,0.3,0.3,0.6,0.2,0.9c-0.2,0.7-0.4,1.3-0.7,2c-0.2-0.4-0.5-0.9-0.8-1.5c-0.3-0.5-0.5-0.9-0.6-1.3
		c-0.1-0.2-0.1-0.5,0-0.7c0.1-0.4,0.2-0.9,0.2-1.3C57.6,32.9,57.9,33.1,58.1,33.3L58.1,33.3z M58.9,39.8c-0.2,0-0.3,0-0.5-0.1
		c0.1-0.1,0.1-0.2,0.2-0.3C58.7,39.5,58.8,39.6,58.9,39.8L58.9,39.8z M55.3,36.2c0.1,0,0.2,0.1,0.3,0.1c-0.3,0.6-0.6,1.2-0.9,1.7
		c-0.4-0.8-0.7-1.6-1-2.3C54.2,35.9,54.7,36,55.3,36.2L55.3,36.2z M58.2,38.5c0,0-0.8,1.4-1.4,2.3c-0.1-0.5-0.3-1.1-0.5-1.7
		c-0.2-0.4-0.3-0.9-0.3-1.2c0-0.2,0-0.4,0.1-0.7c0.4-0.8,0.6-1.4,0.7-1.7c0.1,0.3,0.3,0.6,0.5,0.9c0.4,0.6,0.7,1.2,0.9,1.7
		C58.2,38.2,58.2,38.3,58.2,38.5L58.2,38.5z M50.3,43.9c0,0.2-0.1,0.3-0.1,0.5c-0.1-0.1-0.2-0.1-0.4-0.2C50,44.1,50.1,44,50.3,43.9
		L50.3,43.9z M45.8,45.4c-0.1-0.1-0.2-0.1-0.2-0.1c-0.4-0.3-0.9-0.7-1.3-1.1c0.5,0,1.1-0.1,1.8-0.2c0.5-0.1,1-0.1,1.4-0.1
		c0.2,0,0.3,0.1,0.4,0.2c0.3,0.2,0.6,0.4,0.9,0.6c0,0,0,0,0,0c0,0,0.4,0.2,0.9,0.5c-0.3,0.1-0.6,0.2-0.9,0.3
		c-0.3,0.1-0.6,0.3-0.9,0.4C47.2,46,46.4,45.8,45.8,45.4L45.8,45.4z M57.6,24.9c0,0.5,0,1-0.1,1.4c0,0.1-0.1,0.3-0.2,0.4
		c-0.5,0.6-0.8,1.2-1.1,1.8c-0.1-0.2-0.2-0.5-0.3-0.7c-0.3-0.6-0.5-1.1-0.6-1.5c-0.1-0.4,0-0.8,0.2-1.2c0.6-0.7,1.3-1.3,1.3-1.3
		c0.2-0.2,0.5-0.4,0.8-0.6C57.6,23.6,57.6,24.2,57.6,24.9L57.6,24.9z M42.9,47.1c0.3-0.3,0.6-0.6,0.9-0.8c0.1-0.1,0.3-0.2,0.5-0.2
		c0.3,0,0.6-0.1,0.9-0.1c0.2,0.1,0.5,0.4,0.9,0.6c-0.2,0.6-0.5,1-0.7,1.4c-0.2,0.3-0.5,0.4-0.8,0.5c-1.1,0.1-2.1,0.1-3.1,0
		C42,48.1,42.4,47.7,42.9,47.1L42.9,47.1z M42.4,46.7c-0.4,0.5-0.8,0.9-1.1,1.2c-0.3,0.3-0.8,0.4-1.2,0.3c-1.5-0.4-2.8-1-4-1.9
		c0.5-0.1,1-0.3,1.6-0.5c0.6-0.2,1.2-0.4,1.7-0.3c0.1,0,0.1,0,0.2,0.1c1,0.4,2.2,0.6,3.4,0.7C42.7,46.3,42.6,46.5,42.4,46.7
		L42.4,46.7z M34.3,42.6c0.5,0,1,0.1,1.4,0.2c0.1,0,0.3,0.1,0.4,0.2c0.7,0.7,1.4,1.3,2.3,1.8c-0.3,0.1-0.6,0.2-0.9,0.3
		c-0.4,0.2-0.8,0.3-1.1,0.4c-0.6,0.2-1.2,0-1.6-0.4c-0.5-0.4-0.9-0.9-1.3-1.5c-0.3-0.4-0.6-0.7-0.8-1.1
		C33,42.6,33.6,42.6,34.3,42.6L34.3,42.6z M63.7,47.5c-0.1,0.1-0.2,0.1-0.3,0.2c0-0.1,0.1-0.2,0.1-0.3
		C63.5,47.5,63.6,47.5,63.7,47.5L63.7,47.5z M82.1,38.7l-3-1.2c-0.2-0.1-0.4,0-0.5,0.2c0,0.1-3.2,7.4-8.6,7.4c-0.4,0-0.8,0-1.3-0.1
		c0.5-0.5,1-1,1.5-1.5c1.6-1.8,2.9-3.9,3.8-6.1c0,0,0.1-0.1,0.1-0.1c0,0,0,0,0,0c0.7-1.8,1.1-3.6,1.1-5.1c0-6.6-4.9-12-11-12.1
		c-1.9,0-5,0.7-7.6,2.9C54.5,21.1,51.7,20,49,20c-0.2,0-0.4,0-0.7,0c0,0,0,0,0,0c0,0-0.1,0-0.1,0c-2.8,0.2-5.5,1.5-7.4,3.5
		c-2.2,2.3-3.4,5.2-3.4,8.6c0,3.3,1.7,7.3,4.6,10.7c0.8,0.9,1.6,1.7,2.5,2.5c0,0,0,0,0,0c-0.3,0-0.7,0.1-1,0.1
		c-7.2,0-9.4-7.2-9.4-7.5c-0.1-0.2-0.3-0.3-0.5-0.3l-3.1,0.9c-0.1,0-0.2,0.1-0.2,0.2C30,38.8,30,38.9,30,39c0,0.1,0.8,2.6,2.7,5.1
		c2.7,3.4,6.3,5.2,10.6,5.2c1.9,0,3.8-0.4,5.6-1.1c2.5,1.2,5.1,1.7,7.7,1.7c0.7,0,1.3,0,2-0.1c0,0,0.1,0,0.1,0c2-0.3,4-0.9,5.9-1.9
		c1.8,0.8,3.7,1.2,5.4,1.2c8.1,0,12.2-9.5,12.3-9.9C82.4,39,82.3,38.8,82.1,38.7L82.1,38.7z"/>
</g>

</svg>
