<?xml version="1.0" encoding="utf-8"?>
<!-- Generator: Adobe Illustrator 21.0.2, SVG Export Plug-In . SVG Version: 6.00 Build 0)  -->
<svg version="1.1" id="Layer_1" xmlns="http://www.w3.org/2000/svg" xmlns:xlink="http://www.w3.org/1999/xlink" x="0px" y="0px"
	 viewBox="0 0 60 60" style="enable-background:new 0 0 60 60;" xml:space="preserve" width="80" height="80">
<style type="text/css">
	.st0{fill:none;stroke:#282832;stroke-linecap:round;stroke-linejoin:round;stroke-miterlimit:10;stroke-width: 2;}
</style>
<g>
	<polyline class="st0" points="2.8,49 7.6,44.6 17,48.9 22.8,44.6 29.9,48.2 34.2,46.2 38.1,48.2 46.8,42.8 54.2,48.6 56.5,46.1
		"/>
	<path class="st0" d="M9.2,41.2c0,0,8.9,1.4,12.6,1.4S35,27.4,37.5,27s1.1,14.4,1.1,14.4h2.1c0,0,0.2-4.4,1.1-8.9
		c0.8-3.8,2.5-7.7,2.2-9.3c-1-6.5-4.8-7.4-4.8-7.4s-15.5,22-16.5,22.2s-4.8-3.7-4.8-3.7S10.7,38.6,9.2,41.2z"/>
	<path class="st0" d="M18.5,34.9c0,0,0.6-3.4,8.1-12.6c2.7-3.3,0.7-13.1,0.7-13.1"/>
	<path class="st0" d="M37,9.1c0,0-0.2,4.8,2,6.9"/>
</g>
</svg>
